<?xml version="1.0" standalone="no"?>
<!DOCTYPE svg PUBLIC "-//W3C//DTD SVG 20010904//EN"
 "http://www.w3.org/TR/2001/REC-SVG-20010904/DTD/svg10.dtd">
<svg version="1.0" xmlns="http://www.w3.org/2000/svg"
 width="550.000000pt" height="674.000000pt" viewBox="0 0 550.000000 674.000000"
 preserveAspectRatio="xMidYMid meet">

<g transform="translate(0.000000,674.000000) scale(0.100000,-0.100000)"
fill="#000000" stroke="none">
<path d="M1060 6733 c0 -7 -7 -48 -46 -258 -8 -44 -17 -92 -19 -107 -2 -15
-18 -75 -35 -135 -17 -59 -33 -119 -36 -133 -3 -13 -10 -27 -15 -31 -6 -3 -10
-9 -10 -13 4 -25 0 -36 -11 -30 -7 4 -8 3 -4 -4 6 -10 -18 -89 -54 -177 -7
-16 -19 -46 -27 -65 -23 -57 -30 -73 -52 -122 -12 -26 -21 -50 -21 -53 0 -4
-9 -26 -20 -51 -11 -24 -29 -64 -40 -88 -11 -25 -20 -48 -20 -52 0 -4 -6 -12
-13 -18 -8 -6 -22 -33 -31 -59 -19 -51 -63 -99 -108 -118 -16 -6 -28 -16 -28
-21 0 -10 30 4 73 35 28 19 27 16 -18 -69 -26 -49 -67 -126 -91 -171 -24 -46
-58 -107 -76 -135 -18 -29 -46 -78 -63 -108 -16 -30 -48 -86 -71 -125 -90
-148 -139 -230 -143 -240 -2 -5 -16 -26 -31 -45 -28 -37 -56 -98 -48 -105 3
-3 13 13 24 35 10 22 22 40 27 40 4 0 7 5 7 11 0 6 11 25 25 43 14 18 25 36
25 40 0 3 24 43 53 89 29 45 75 120 102 167 27 47 69 119 94 160 25 41 66 116
91 165 26 50 69 131 96 180 27 50 58 110 69 135 35 81 43 90 89 91 22 1 55 5
71 9 18 5 1 6 -44 3 -42 -3 -72 -2 -69 3 31 53 250 596 268 664 7 25 16 54 20
65 12 29 57 210 70 280 6 33 17 89 25 125 17 80 30 200 21 200 -3 0 -6 -3 -6
-7z"/>
<path d="M1850 6733 c0 -4 11 -23 24 -42 31 -48 244 -390 288 -466 104 -177
238 -434 238 -457 0 -7 9 -28 20 -46 11 -18 20 -37 20 -43 0 -6 6 -25 14 -42
31 -71 56 -145 70 -203 l14 -62 -27 -12 c-43 -19 -171 -101 -171 -109 0 -4
-25 -14 -55 -21 -51 -12 -55 -15 -55 -42 0 -39 -31 -72 -60 -63 -16 5 -29 0
-51 -21 -16 -15 -29 -22 -29 -16 0 16 -79 -36 -168 -110 -134 -113 -143 -121
-137 -126 3 -3 -2 -13 -11 -23 -10 -11 -16 -35 -16 -58 0 -23 -3 -43 -9 -46
-5 -4 -9 -21 -9 -38 0 -18 -10 -63 -21 -102 -12 -38 -23 -88 -26 -110 -3 -22
-10 -46 -16 -53 -6 -8 -12 -21 -12 -30 -4 -38 -119 -201 -133 -188 -7 7 -32
-13 -32 -26 0 -6 8 -4 18 3 15 11 15 11 4 -1 -7 -8 -18 -15 -25 -15 -7 -1 -11
-7 -9 -14 1 -7 -2 -10 -7 -6 -12 7 -33 -29 -23 -40 4 -3 0 -5 -8 -3 -9 2 -14
-3 -12 -12 2 -8 0 -12 -4 -7 -9 9 -64 -42 -64 -60 0 -7 -4 -13 -9 -13 -5 0
-31 -22 -58 -49 -57 -57 -171 -122 -132 -74 13 15 12 15 -9 4 -12 -7 -20 -17
-16 -23 4 -6 3 -8 -4 -4 -12 7 -77 -26 -107 -55 -18 -17 -18 -22 -6 -51 27
-63 25 -112 -4 -162 -15 -25 -28 -56 -30 -68 -3 -13 -7 -35 -11 -49 -3 -16 0
-39 10 -57 9 -17 16 -49 16 -72 0 -22 4 -40 9 -40 5 0 7 10 5 23 -4 22 -4 22
8 -2 18 -35 130 -151 145 -151 8 0 13 6 12 13 -5 43 -2 45 58 31 82 -19 105
-40 125 -113 9 -34 13 -59 8 -56 -5 3 -12 20 -15 38 -9 38 -39 83 -67 98 -33
18 -33 2 0 -26 21 -18 37 -45 48 -83 27 -88 34 -91 82 -37 24 27 47 67 55 94
l13 46 19 -32 c22 -38 35 -42 35 -12 0 18 2 19 15 9 13 -11 14 -7 9 31 -4 30
-1 53 10 74 9 17 16 33 16 37 0 9 100 113 109 113 3 0 27 17 52 37 24 20 81
50 125 66 44 17 130 54 191 84 62 30 111 52 110 49 -4 -16 26 -82 36 -78 7 2
17 19 23 37 6 19 20 39 30 45 10 5 25 16 32 23 8 7 27 16 43 19 16 3 29 11 29
18 0 7 12 15 28 18 86 18 181 43 188 50 16 15 33 5 104 -63 55 -52 77 -67 87
-59 6 6 18 8 25 4 7 -4 5 0 -4 8 -26 21 -24 67 3 67 11 0 17 -4 14 -10 -4 -6
1 -7 11 -3 13 5 15 2 9 -17 -4 -12 -8 -29 -9 -36 -1 -7 -5 -17 -9 -20 -4 -4
-7 -12 -7 -18 0 -6 8 0 17 14 21 29 28 117 9 101 -7 -6 -16 -8 -19 -4 -13 12
-7 22 16 29 21 7 21 7 2 14 -33 12 46 23 126 18 45 -4 70 -1 74 6 2 6 2 1 -1
-12 -3 -13 -1 -29 6 -37 9 -11 16 -10 43 3 18 9 26 17 18 20 -7 2 -18 -1 -24
-7 -17 -17 -27 -13 -27 9 0 14 7 20 23 20 33 0 51 -15 45 -38 -3 -11 -2 -26 3
-33 6 -10 10 -7 18 11 13 33 13 13 0 -95 -6 -49 -15 -94 -20 -99 -5 -6 -9 -15
-9 -20 0 -8 3 -8 8 0 9 13 77 64 85 64 4 0 7 -17 7 -37 0 -40 -63 -206 -80
-211 -6 -2 -10 -9 -10 -16 0 -7 -7 -21 -15 -32 -13 -17 -14 -16 -9 21 l5 40
-16 -44 c-9 -24 -28 -55 -41 -70 -13 -14 -24 -29 -24 -33 0 -4 -9 -10 -20 -13
-11 -3 -20 -12 -20 -20 0 -11 -23 -24 -53 -29 -4 0 -11 -6 -15 -11 -11 -17
-98 -85 -108 -85 -14 -1 -84 -66 -78 -73 3 -3 16 4 28 17 11 12 45 39 74 60
46 34 52 35 49 17 -4 -24 -40 -54 -52 -43 -5 4 -5 2 -2 -5 5 -7 -50 -47 -150
-110 -86 -54 -166 -102 -177 -106 -11 -4 -44 -24 -72 -42 -29 -19 -57 -35 -63
-35 -6 0 -44 -19 -84 -43 -39 -24 -103 -61 -142 -82 -78 -43 -213 -130 -263
-172 -27 -21 -45 -27 -83 -28 -50 0 -67 -11 -26 -17 15 -2 -18 -23 -113 -70
-74 -37 -129 -68 -123 -68 12 0 116 45 178 77 77 40 126 63 132 63 7 0 -166
-116 -192 -130 -64 -33 -318 -190 -410 -254 -44 -31 -124 -85 -178 -122 -54
-36 -96 -69 -93 -72 4 -3 21 5 39 18 17 13 0 -10 -39 -51 -121 -126 -275 -316
-309 -382 -11 -21 -28 -46 -38 -55 -18 -16 -18 -15 -6 13 7 17 16 34 21 40 4
5 8 16 8 24 0 8 30 60 67 115 84 126 282 328 408 417 50 35 99 71 109 81 11
10 23 18 26 18 4 0 20 11 36 25 16 14 50 35 77 47 26 12 47 25 47 30 0 5 -17
1 -37 -8 -21 -9 -46 -17 -55 -18 -9 0 -15 -3 -13 -7 2 -3 -10 -16 -27 -29 -22
-16 -32 -19 -38 -10 -5 8 -10 9 -14 2 -3 -6 -2 -12 4 -14 6 -2 -14 -22 -44
-46 -58 -44 -77 -54 -55 -24 13 15 12 16 -3 3 -10 -7 -16 -17 -13 -21 3 -4
-10 -17 -28 -27 -17 -11 -55 -41 -83 -66 -29 -26 -56 -47 -60 -47 -11 0 -29
-20 -113 -118 -34 -40 -66 -70 -71 -67 -29 18 -122 -119 -191 -280 -19 -44
-37 -81 -41 -83 -5 -2 -8 -13 -8 -25 0 -12 -14 -76 -30 -142 -20 -76 -33 -159
-37 -227 -5 -89 -8 -106 -20 -97 -8 7 -13 8 -13 1 0 -5 6 -15 14 -21 8 -7 15
-20 15 -29 1 -38 5 -51 12 -46 4 2 15 -17 23 -43 l15 -48 -5 50 c-4 36 -1 55
11 70 14 18 15 10 11 -110 -2 -71 -7 -148 -10 -170 l-6 -40 13 40 c14 40 14
40 24 15 6 -14 26 -74 46 -135 19 -60 51 -145 71 -188 20 -43 36 -82 36 -87 0
-4 7 -10 15 -14 12 -4 13 -2 6 12 -5 9 -19 40 -31 67 -12 28 -28 63 -36 79 -8
16 -14 37 -14 48 0 10 -5 18 -11 18 -6 0 -9 9 -6 20 3 11 1 20 -5 20 -6 0 -7
7 -4 16 3 8 2 13 -2 10 -4 -3 -14 16 -21 42 -7 26 -16 57 -21 68 -20 50 -22
159 -5 229 25 105 77 257 86 248 8 -9 34 -132 44 -208 3 -27 12 -86 20 -130 8
-44 17 -93 19 -109 3 -16 8 -31 11 -34 10 -11 4 44 -15 138 -11 52 -20 104
-20 115 0 19 59 -136 82 -215 14 -48 56 -174 70 -208 6 -15 14 -36 18 -47 43
-113 85 -212 93 -220 7 -7 8 -5 4 5 -11 31 -89 236 -97 255 -4 11 -15 43 -25
70 -9 28 -20 59 -24 70 -5 11 -16 45 -25 75 -10 30 -22 64 -26 75 -18 42 -78
242 -88 290 -26 136 -6 243 57 303 l36 35 -33 -23 c-18 -12 -36 -19 -40 -16
-3 4 -13 -17 -22 -45 l-17 -52 -12 46 c-10 41 -9 51 6 75 10 15 22 30 27 34 6
4 8 10 4 13 -4 4 -14 -5 -23 -19 -21 -32 -31 -33 -39 -3 -15 48 -23 -17 -13
-98 l10 -80 -41 -78 c-23 -43 -42 -84 -42 -90 0 -7 14 15 31 48 71 135 76 122
19 -48 -22 -65 -40 -128 -41 -140 -1 -15 -4 -10 -10 13 -14 58 -3 257 20 344
26 97 26 129 1 61 -22 -61 -24 -51 -6 35 13 63 44 125 107 217 16 23 29 46 29
52 0 6 4 11 8 11 4 0 15 12 24 28 9 15 25 36 35 47 10 11 47 56 82 100 36 44
102 116 148 161 46 44 83 85 83 90 0 6 21 23 47 40 25 16 51 34 57 40 23 22
95 63 90 51 -2 -7 -17 -20 -32 -30 -15 -9 -22 -17 -16 -17 6 0 31 14 55 32 38
28 50 31 104 29 125 -4 261 -36 394 -93 l45 -19 -95 -43 c-164 -74 -193 -89
-247 -123 -29 -18 -54 -33 -57 -33 -3 0 -26 -13 -53 -30 -46 -28 -53 -29 -160
-29 -173 0 -346 -56 -434 -141 l-33 -32 35 23 c19 13 37 27 40 30 8 10 83 40
88 35 2 -3 13 3 23 13 33 31 216 62 305 52 l48 -6 -110 -72 c-60 -39 -147 -98
-193 -130 -45 -32 -95 -65 -109 -73 -14 -9 -27 -21 -30 -28 -3 -10 149 87 185
118 7 5 16 10 22 10 5 0 11 3 13 8 3 7 183 129 228 153 14 8 42 14 62 14 21 0
36 5 35 10 -1 6 -8 9 -14 9 -23 -3 -14 10 20 30 155 90 223 125 339 177 94 42
116 48 136 40 32 -15 34 -14 30 11 -2 19 5 26 42 39 25 8 62 23 84 32 21 9 40
17 42 17 3 0 42 17 194 87 101 47 269 132 300 152 14 9 41 24 60 34 110 54
202 116 194 129 -4 7 -3 8 4 4 15 -9 60 21 68 46 3 11 22 35 42 52 151 130
318 326 424 496 98 158 128 224 167 374 29 111 39 407 16 496 -9 36 -21 83
-26 105 -5 22 -16 69 -25 105 -8 36 -18 77 -21 93 -3 15 -9 27 -14 27 -13 0
-11 -23 6 -63 19 -46 19 -47 -2 -47 -16 0 -16 -2 -3 -10 12 -9 4 -20 -45 -65
-40 -36 -63 -50 -70 -44 -5 6 -10 35 -11 66 0 34 -5 58 -12 61 -7 2 -12 12
-12 23 0 14 34 35 143 88 78 38 168 81 201 95 l58 26 30 -21 c16 -12 30 -20
31 -18 2 2 12 22 22 44 11 22 27 51 35 64 8 13 16 36 18 50 3 25 2 25 -18 -7
-11 -18 -20 -39 -20 -47 0 -23 -17 -18 -24 8 -10 39 -7 56 19 82 14 14 29 25
32 25 3 0 11 7 17 15 15 20 39 4 30 -20 -7 -18 -8 -18 -15 1 -7 18 -7 18 -14
0 -5 -11 -3 -21 5 -26 8 -5 10 -15 5 -26 -5 -11 -8 -22 -7 -26 3 -14 -48 -143
-58 -146 -6 -2 -7 -8 -4 -13 7 -12 -15 -69 -26 -69 -5 0 -11 6 -13 13 -3 7 -6
6 -6 -5 -1 -23 18 -33 34 -17 11 12 79 194 103 276 7 22 28 33 26 13 -1 -5 -2
-17 -2 -26 -1 -8 -6 -13 -11 -10 -5 4 -7 -2 -4 -12 5 -21 -44 -221 -59 -239
-6 -8 -7 -13 -1 -13 13 0 27 33 47 115 9 39 21 84 27 101 5 17 9 38 9 47 0 9
4 17 10 17 14 0 30 -35 30 -67 l0 -28 -20 25 c-24 30 -26 19 -4 -16 16 -24 16
-29 -1 -139 -2 -11 -10 -40 -18 -65 -20 -59 -30 -117 -19 -105 5 6 17 43 28
83 22 89 44 84 25 -5 -19 -89 -62 -246 -72 -265 -12 -23 -12 -45 0 -32 9 10
50 142 76 243 8 36 17 67 19 69 6 5 30 -71 28 -91 0 -9 3 -15 9 -12 13 9 11
-7 -11 -87 -11 -39 -17 -74 -14 -77 2 -3 8 5 11 18 l6 23 14 -23 c14 -24 14
-24 7 6 -7 34 -8 40 -6 78 3 39 17 33 32 -12 12 -38 7 -116 -8 -107 -4 2 -7
-19 -8 -47 0 -29 1 -42 4 -29 2 13 8 19 14 16 7 -5 9 0 5 15 -3 12 -1 38 5 58
l10 37 19 -38 c14 -29 16 -43 8 -58 -6 -10 -8 -24 -6 -31 3 -7 9 -1 15 13 l10
25 7 -27 c4 -15 4 -32 0 -37 -3 -6 0 -8 8 -5 22 8 27 -42 9 -87 -16 -41 -32
-43 -32 -4 0 13 -4 27 -10 30 -5 3 -10 18 -10 33 0 15 -7 36 -15 46 -13 17
-15 18 -15 3 0 -9 3 -17 8 -17 4 0 7 -14 8 -30 1 -17 -3 -30 -7 -30 -5 0 -9
-10 -9 -22 1 -23 1 -23 15 2 14 25 14 25 15 -13 0 -21 4 -36 9 -33 11 7 23
-22 15 -36 -4 -6 -1 -14 6 -18 7 -4 13 -21 14 -37 2 -16 6 -34 9 -40 3 -5 8
-20 11 -34 3 -13 10 -37 16 -54 11 -27 9 -36 -24 -93 -20 -35 -36 -68 -36 -74
0 -6 -6 -8 -14 -5 -11 4 -14 -7 -13 -52 0 -45 -4 -63 -20 -80 -11 -12 -29 -39
-39 -61 -10 -22 -23 -40 -27 -40 -5 0 -5 5 -1 11 3 6 8 66 9 132 2 81 0 114
-6 99 -5 -13 -9 -67 -10 -120 -1 -89 -4 -102 -35 -164 -19 -37 -36 -68 -37
-68 -2 0 -2 17 0 38 1 26 -1 20 -9 -17 -7 -37 -23 -72 -50 -109 -22 -29 -37
-56 -34 -59 3 -4 6 -1 6 5 0 7 5 12 10 12 16 0 59 52 60 71 0 8 8 24 18 35 9
10 25 32 35 47 10 16 20 27 22 25 4 -5 -21 -160 -30 -180 -11 -26 2 -22 31 10
l24 27 -16 -37 c-11 -23 -22 -34 -30 -31 -9 3 -14 -2 -14 -16 0 -12 0 -24 0
-28 -1 -14 -82 -157 -108 -191 -30 -39 -69 -64 -59 -38 4 10 3 15 -3 11 -6 -3
-10 -12 -10 -19 0 -7 -11 -25 -24 -39 -13 -14 -21 -29 -18 -32 4 -3 -2 -3 -12
1 -14 5 -17 3 -14 -7 3 -8 -1 -22 -10 -31 -8 -10 -10 -18 -4 -18 10 0 41 31
92 90 33 39 11 0 -29 -50 -52 -64 -111 -123 -111 -110 0 6 -5 8 -11 4 -8 -5
-8 -9 1 -14 14 -8 -84 -120 -106 -120 -8 0 -14 -6 -14 -13 0 -21 -331 -347
-352 -347 -3 0 -5 7 -5 16 0 9 13 24 29 33 15 9 28 20 28 24 0 5 4 6 8 3 4 -2
8 7 7 22 0 17 -6 28 -17 30 -10 2 -18 -1 -18 -7 0 -6 5 -11 10 -11 30 0 -11
-51 -45 -56 -5 0 -16 -2 -23 -2 -7 -1 -31 -19 -55 -40 -91 -81 -287 -214 -209
-142 25 23 28 32 10 24 -20 -9 -71 -74 -59 -74 7 0 7 -7 -1 -25 -6 -13 -15
-22 -21 -18 -6 3 -7 1 -3 -6 8 -12 -20 -41 -59 -62 -11 -7 -5 4 14 25 19 20
31 36 25 36 -5 1 0 8 11 18 13 11 21 32 22 57 l3 40 -20 -25 c-11 -14 -23 -34
-26 -45 -4 -11 -14 -25 -23 -32 -9 -6 -13 -15 -9 -19 9 -9 -31 -66 -41 -59 -5
2 -13 -7 -20 -22 -6 -14 -14 -23 -17 -21 -9 9 19 58 33 58 7 0 13 7 13 15 0 8
5 15 10 15 6 0 10 4 10 10 0 5 -15 2 -34 -8 -18 -9 -32 -21 -30 -27 2 -5 -7
-27 -19 -49 -28 -49 -157 -128 -157 -96 0 10 -4 22 -10 25 -5 3 -10 -1 -10 -9
0 -24 -1 -30 -11 -48 -10 -19 -44 -24 -54 -8 -13 20 -36 9 -52 -26 -11 -21
-32 -43 -53 -54 -19 -9 -64 -32 -99 -49 -35 -18 -61 -35 -58 -38 3 -3 47 16
96 41 50 26 91 42 91 36 0 -5 -29 -28 -65 -51 -77 -48 -81 -64 -6 -20 l51 30
0 -23 c0 -18 -17 -33 -82 -71 -46 -27 -94 -57 -108 -67 -14 -11 -45 -33 -68
-49 -24 -17 -41 -33 -37 -37 3 -4 9 -2 13 4 8 13 181 123 232 148 34 17 33 16
-17 -36 -107 -108 -259 -257 -281 -275 l-24 -19 23 -1 c19 -2 20 0 9 7 -11 7
-11 10 -2 10 15 0 102 70 102 81 0 4 16 25 36 46 l37 38 -19 -35 c-10 -19 -19
-37 -19 -40 -9 -43 -16 -96 -20 -143 -3 -32 -7 -62 -10 -67 -3 -5 -1 -11 3
-14 5 -3 8 -17 7 -31 -7 -57 64 -577 80 -593 12 -13 12 8 -1 73 -18 93 -35
200 -40 255 -2 25 -8 83 -14 130 -13 114 -12 296 2 345 6 22 12 43 12 48 1 4
5 7 10 6 5 0 13 6 18 15 11 19 34 21 42 4 3 -7 4 -4 1 8 -5 19 5 28 78 62 4 2
5 -2 2 -10 -2 -7 -6 -37 -9 -67 -6 -57 -5 -56 -105 -158 -24 -24 -40 -47 -36
-51 4 -4 10 -1 12 6 3 6 9 10 14 6 5 -3 13 5 18 18 5 13 25 38 44 56 27 27 36
30 40 18 6 -16 -27 -46 -50 -46 -7 0 -13 -4 -13 -10 0 -15 21 -12 42 7 17 15
18 14 18 -38 0 -37 -6 -63 -20 -84 -22 -33 -26 -55 -10 -55 6 0 10 9 10 19 0
11 3 22 7 24 5 3 8 -99 8 -226 0 -163 4 -243 13 -268 13 -37 46 -79 62 -79 5
0 -2 12 -15 26 -37 39 -47 94 -49 240 -1 98 3 135 13 148 19 23 24 14 24 -39
0 -25 3 -45 8 -45 5 0 9 28 9 63 0 55 3 67 25 87 14 13 25 28 25 33 0 5 -9 -1
-19 -14 -27 -34 -34 -19 -22 43 5 29 13 80 17 113 6 62 43 135 67 135 11 0 12
-14 4 -67 -5 -38 -7 -89 -4 -115 2 -31 0 -46 -7 -45 -6 1 -10 -6 -8 -16 2 -10
-4 -30 -14 -44 -13 -20 -13 -25 -2 -21 11 5 13 -7 12 -61 -2 -63 -2 -62 9 24
7 50 16 97 22 105 14 21 31 54 72 133 18 37 36 67 38 67 3 0 12 -17 21 -37 21
-51 12 -170 -21 -260 -28 -78 -26 -95 4 -31 11 23 19 34 16 23 -8 -38 -10
-164 -2 -171 4 -4 8 17 9 47 4 145 8 182 31 290 24 110 25 163 6 175 -5 3 -9
14 -9 25 0 28 17 15 38 -29 24 -49 44 -83 60 -104 8 -9 11 -22 7 -28 -3 -6 -1
-9 7 -8 7 2 12 -5 12 -14 -1 -10 4 -14 12 -11 8 3 14 0 14 -6 0 -6 -5 -11 -11
-11 -6 0 -1 -12 11 -27 59 -76 88 -117 156 -215 40 -59 79 -110 85 -113 13 -9
-130 202 -178 261 -60 74 -35 55 74 -56 104 -106 138 -135 126 -104 -3 7 -10
14 -15 14 -6 0 -7 7 -4 16 3 9 2 12 -4 9 -6 -4 -45 29 -88 73 -126 130 -184
207 -241 322 -18 36 -37 73 -42 82 -11 22 -11 28 1 28 5 0 21 -21 37 -47 15
-27 45 -73 67 -103 46 -63 163 -186 170 -179 4 4 -27 39 -95 104 -37 35 -101
127 -146 207 -45 82 -58 116 -22 60 12 -18 24 -31 26 -28 5 4 -26 57 -39 66
-10 8 17 189 35 230 17 43 93 140 108 140 6 0 28 14 48 31 84 71 160 138 232
206 42 40 79 70 82 66 4 -3 7 -1 7 6 0 19 88 101 126 117 19 8 33 21 32 28 -2
8 60 77 137 154 431 429 540 548 529 576 -3 9 -10 13 -15 10 -5 -3 -7 -9 -5
-13 3 -4 -14 -25 -37 -47 -23 -21 -33 -28 -22 -14 11 14 24 28 29 32 5 3 11
13 12 21 1 9 15 35 31 59 16 24 55 95 87 158 32 63 64 120 71 125 7 6 20 33
29 60 10 28 39 104 66 170 26 66 58 149 69 185 21 64 28 81 50 130 10 23 10
22 5 -10 -4 -19 -17 -69 -30 -110 -13 -41 -24 -83 -24 -92 0 -10 -4 -18 -9
-18 -5 0 -12 -19 -16 -41 -7 -40 -49 -150 -78 -206 -8 -16 -47 -93 -85 -173
-61 -126 -112 -204 -112 -174 0 11 -20 -18 -20 -29 0 -5 4 -5 10 -2 6 4 7 -1
4 -12 -11 -32 44 39 76 100 19 34 36 55 42 51 6 -4 8 -2 5 3 -4 6 20 69 53
140 34 70 65 137 69 148 32 73 40 94 49 125 32 107 56 180 59 180 8 0 -6 -69
-21 -104 -19 -45 -19 -46 -7 -46 5 0 15 17 21 38 7 20 16 41 21 47 11 12 12
62 1 69 -5 3 -6 20 -3 38 l5 33 6 -35 c6 -32 7 -29 18 35 7 39 16 111 20 160
8 100 -2 409 -13 440 -5 13 -5 17 2 10 12 -11 31 -93 42 -175 11 -84 24 -36
19 68 -11 194 -164 516 -342 717 -20 22 -36 43 -36 47 0 4 -21 21 -46 38 -33
23 -52 30 -70 26 -27 -7 -32 5 -10 23 36 30 219 -132 333 -292 30 -43 57 -76
60 -74 8 9 -115 173 -184 247 -37 39 -87 83 -110 97 -76 44 -51 52 107 33 47
-6 96 -13 110 -16 17 -4 22 -2 15 5 -6 6 -43 14 -84 17 -89 9 -74 23 26 27 37
1 70 5 73 9 7 9 118 13 127 5 3 -4 13 -7 22 -6 12 0 11 3 -4 9 l-20 9 20 1
c11 1 46 2 78 2 32 0 57 4 57 10 0 6 -40 9 -107 7 -60 -2 -121 0 -138 5 -20 5
-26 4 -16 -2 17 -12 2 -15 -158 -37 -62 -8 -118 -18 -123 -21 -5 -3 -34 -6
-65 -5 -47 0 -53 -2 -43 -14 8 -10 9 -15 2 -15 -6 0 -14 9 -17 21 -4 12 -14
29 -23 38 -10 10 -27 30 -40 45 -13 15 -26 25 -29 22 -3 -3 0 -12 7 -21 8 -10
9 -15 2 -15 -6 0 -9 -8 -6 -17 5 -14 4 -15 -4 -4 -6 8 -25 12 -48 11 -75 -4
-127 -1 -138 10 -7 7 -6 10 2 10 7 0 12 5 12 11 0 7 -9 9 -21 6 -30 -8 -70 1
-99 23 -22 16 -23 21 -12 45 16 34 9 42 -22 26 -19 -11 -31 -11 -60 -1 -41 13
-41 13 -24 40 10 15 10 24 2 38 -9 14 -8 22 4 37 12 16 14 17 9 3 -3 -10 -2
-20 4 -24 6 -3 8 -12 5 -20 -3 -8 -2 -13 2 -13 23 4 72 -16 73 -30 0 -9 6 0
12 19 7 24 12 29 14 18 6 -23 8 -23 34 3 17 17 23 19 30 8 5 -9 1 -18 -14 -26
l-22 -12 25 -1 c23 -1 24 -2 7 -14 -16 -12 -15 -13 9 -13 23 0 47 -21 44 -38
-2 -11 51 -48 57 -41 4 3 -4 17 -17 31 -13 14 -20 25 -16 25 4 0 26 -20 48
-45 38 -43 58 -55 58 -37 0 5 -14 23 -31 40 -18 18 -30 34 -28 36 4 4 133 17
184 19 60 2 179 -15 201 -30 24 -15 26 -15 40 6 15 20 41 31 29 11 -4 -6 10
-11 34 -12 107 -4 207 -23 312 -59 52 -18 99 -36 106 -41 7 -6 19 -6 30 1 16
8 22 3 42 -35 13 -24 27 -44 32 -44 4 0 -11 33 -33 73 -22 39 -56 101 -75 137
-54 98 -116 204 -125 210 -4 3 -13 19 -20 35 -12 27 -122 194 -199 300 -15 22
-28 43 -29 46 0 12 53 29 78 24 22 -4 23 -4 7 4 -17 7 -3 17 85 58 58 28 116
54 130 58 14 4 43 16 65 26 57 26 178 69 182 65 3 -2 -28 -19 -67 -36 -38 -18
-68 -35 -66 -37 2 -2 55 21 117 51 63 30 150 65 194 77 46 13 90 33 104 46 13
13 27 23 31 23 4 0 7 6 7 14 0 18 -279 15 -352 -4 -77 -20 -78 -20 -73 -26 3
-3 34 2 69 11 34 9 94 18 133 20 68 4 69 4 26 -6 -65 -15 -96 -31 -45 -23 160
25 206 30 216 24 6 -5 0 -10 -16 -14 -14 -4 -31 -4 -37 0 -6 4 -8 3 -4 -4 4
-6 -7 -17 -26 -26 -34 -15 -143 -51 -143 -47 0 1 -45 -14 -99 -33 -55 -20
-101 -34 -103 -33 -1 2 33 20 77 41 44 20 80 41 80 47 0 13 -6 12 -48 -14 -20
-13 -53 -29 -72 -37 -19 -7 -122 -58 -228 -112 -106 -54 -199 -98 -207 -98 -7
0 -15 -5 -17 -12 -4 -11 -67 48 -68 62 0 3 16 14 35 24 22 12 31 22 24 27 -7
4 2 11 22 17 19 5 54 15 79 23 45 13 94 39 74 39 -6 0 -54 -16 -108 -35 -54
-19 -101 -35 -105 -36 -3 0 3 -4 13 -8 18 -7 16 -9 -14 -24 -38 -19 -55 -13
-25 9 19 15 19 15 -7 9 -18 -5 -28 -3 -28 4 0 10 14 15 23 9 2 -2 10 2 18 9 8
6 46 22 84 34 39 13 75 30 81 37 6 8 17 13 25 10 8 -3 19 2 26 11 10 12 12 13
13 2 0 -10 4 -11 13 -3 6 6 50 22 97 37 151 49 165 54 146 55 -21 0 -186 -49
-276 -81 -30 -12 -88 -32 -128 -45 -40 -13 -87 -31 -104 -40 -31 -16 -31 -16
-62 22 -17 22 -75 84 -128 139 -74 76 -94 103 -84 110 7 6 55 38 106 73 52 35
111 79 133 98 60 55 179 128 204 126 22 -2 49 29 36 42 -19 19 -144 -12 -260
-64 -35 -16 -63 -24 -63 -19 0 6 -5 7 -11 4 -6 -4 -8 -9 -5 -13 9 -8 -46 -33
-61 -27 -8 2 -12 1 -9 -4 7 -11 -22 -23 -35 -15 -5 3 -8 0 -7 -7 2 -6 -3 -14
-11 -17 -8 -3 -11 0 -7 6 5 8 -2 8 -24 1 -16 -6 -33 -15 -36 -21 -4 -6 2 -5
14 1 11 6 27 11 34 11 7 -1 0 -8 -15 -16 -16 -9 -35 -13 -43 -10 -27 10 -179
-78 -167 -97 3 -6 1 -7 -5 -3 -6 4 -25 -3 -41 -15 -17 -12 -34 -18 -42 -14 -7
5 -10 4 -6 -2 9 -14 -19 -37 -34 -27 -7 4 -10 3 -7 -2 7 -10 -11 -27 -32 -32
-8 -2 -17 -7 -20 -10 -3 -4 -31 -24 -64 -45 -42 -28 -61 -36 -69 -28 -19 19
-31 12 -14 -7 15 -17 14 -19 -21 -37 -76 -40 -328 -221 -336 -243 -5 -11 58
33 149 104 22 17 67 49 100 69 59 37 57 35 -71 -96 -71 -74 -142 -149 -157
-168 -15 -18 -31 -31 -34 -27 -4 3 11 24 32 46 22 22 34 40 29 40 -14 0 -64
-57 -85 -95 -9 -16 -23 -30 -30 -31 -8 0 -22 -2 -31 -2 -19 -2 -48 -28 -48
-43 0 -5 10 -1 22 11 29 26 68 25 95 -3 23 -25 18 -53 -7 -37 -13 8 -13 10 -1
10 8 0 12 2 9 5 -8 9 -38 -6 -32 -16 7 -12 -8 -11 -40 1 -14 5 -26 6 -26 2 0
-9 49 -32 67 -32 7 0 13 -5 13 -11 0 -6 7 -3 16 5 31 31 60 30 113 -5 l51 -34
-35 -12 c-48 -16 -142 -6 -159 19 -12 17 -17 17 -52 5 -37 -13 -41 -12 -81 17
-28 19 -43 37 -43 50 0 27 44 93 67 101 22 7 58 54 48 63 -3 3 -9 2 -13 -4
-17 -24 -114 -84 -138 -84 -7 0 -16 -5 -20 -12 -5 -8 -1 -9 12 -5 14 5 12 2
-6 -13 -30 -23 -48 -26 -30 -4 11 12 11 15 0 12 -8 -2 -19 19 -30 62 -20 75
-78 240 -90 255 -4 6 -20 42 -35 80 -15 39 -31 75 -35 80 -4 6 -39 71 -77 145
-66 127 -176 315 -291 495 -28 44 -72 115 -99 158 -42 68 -63 91 -63 70z
m2415 -443 c-4 -6 -14 -9 -23 -6 -22 6 -104 -45 -243 -150 -30 -22 -68 -48
-85 -57 -17 -9 -54 -34 -83 -57 -36 -29 -58 -39 -71 -35 -12 4 -20 2 -20 -5 0
-6 5 -8 10 -5 6 3 10 2 10 -3 0 -11 -143 -118 -153 -114 -5 1 -6 -2 -3 -7 3
-5 -31 -38 -77 -74 -45 -36 -107 -91 -137 -121 -30 -31 -63 -56 -75 -56 -16 0
-17 -2 -5 -10 11 -7 3 -21 -44 -69 -31 -34 -54 -65 -51 -71 8 -13 -64 -102
-76 -94 -5 3 -12 -9 -15 -26 -5 -20 -16 -36 -35 -45 -32 -17 -59 -19 -59 -5 0
6 -7 10 -16 10 -9 0 -25 11 -36 25 -13 17 -29 25 -49 25 -47 0 -46 24 3 83 70
84 76 96 15 33 -30 -32 -58 -65 -61 -73 -5 -13 -9 -13 -22 -2 -14 11 -12 16
15 38 73 62 116 96 121 96 4 0 66 62 139 138 74 75 137 137 141 137 5 0 30
-29 56 -65 26 -36 49 -63 52 -61 4 5 -77 117 -93 128 -10 7 -3 15 74 81 53 44
63 46 55 10 -13 -61 -13 -67 1 -38 8 17 14 41 15 55 0 22 13 31 110 73 61 27
147 61 193 76 100 35 137 52 137 63 0 11 0 11 -48 -12 -23 -11 -56 -23 -72
-27 -17 -3 -33 -10 -36 -14 -3 -5 -13 -9 -22 -9 -9 0 -62 -20 -117 -45 -56
-25 -89 -36 -75 -25 14 11 35 23 48 26 12 4 27 15 33 25 5 11 14 17 20 14 5
-4 9 -2 9 4 0 6 7 7 17 4 12 -5 14 -3 8 7 -5 9 -4 11 3 6 6 -4 85 29 174 72
237 115 324 150 393 156 19 2 38 6 42 10 10 9 16 -1 8 -14z m-525 -175 c0 -2
-18 -14 -40 -25 -48 -25 -53 -18 -7 10 32 20 47 25 47 15z m227 -355 l64 -74
-43 -20 c-153 -69 -274 -129 -320 -158 -29 -18 -65 -39 -80 -46 -16 -6 -28
-16 -28 -22 0 -5 -7 -10 -15 -10 -8 0 -15 -4 -15 -8 0 -5 -12 -14 -27 -21 -21
-8 -16 -1 22 34 28 24 54 45 58 45 12 0 98 63 93 68 -6 5 -170 -105 -265 -177
-40 -31 -83 -63 -94 -71 -12 -8 -35 -30 -50 -47 -16 -18 -32 -33 -37 -33 -13
0 -80 -68 -81 -82 0 -7 -4 -4 -9 7 -13 31 -12 35 18 36 l27 2 -27 4 c-25 4
-26 6 -16 36 15 43 24 54 83 93 27 19 45 34 40 34 -6 0 -21 -7 -33 -16 -13 -9
-26 -13 -29 -10 -4 3 -2 6 4 6 6 0 11 16 10 35 -1 26 11 51 47 102 64 91 124
167 134 171 5 1 15 -12 23 -29 7 -18 15 -27 17 -20 2 6 -4 23 -13 38 -17 26
-17 26 16 56 95 84 321 257 329 252 6 -4 7 2 3 12 -8 24 112 -92 194 -187z
m-795 -51 c-62 -61 -115 -109 -118 -107 -5 6 213 218 224 218 4 0 -44 -50
-106 -111z m898 -79 c0 -4 -12 -14 -27 -22 -104 -52 -134 -70 -130 -74 2 -2
38 14 80 36 42 22 82 40 89 40 8 0 22 -14 31 -30 18 -30 16 -50 -6 -50 -13 0
-159 -71 -167 -81 -3 -3 -23 -14 -45 -24 -22 -10 -71 -38 -108 -62 -37 -24
-71 -43 -76 -43 -4 0 -16 -9 -25 -19 -10 -11 -32 -23 -50 -27 -17 -4 -25 -9
-18 -11 8 -3 5 -11 -10 -25 -27 -23 -6 -13 34 16 50 36 37 12 -34 -64 -38 -41
-65 -64 -58 -52 6 13 8 27 4 30 -4 4 -9 1 -11 -6 -3 -7 -10 -18 -17 -25 -7 -6
-25 -30 -40 -52 -20 -30 -27 -34 -24 -18 2 12 -1 21 -7 20 -5 -1 -9 -9 -7 -17
3 -13 2 -13 -8 0 -9 13 -13 11 -31 -10 -11 -14 -17 -19 -13 -11 5 10 3 13 -7
9 -8 -3 -23 0 -33 8 -15 10 -16 17 -8 27 18 22 1 29 -26 11 -22 -14 -25 -14
-42 1 -10 9 -16 23 -13 31 3 8 -1 14 -10 14 -29 0 -10 34 25 46 58 20 102 46
90 53 -13 8 152 145 238 196 36 22 72 45 81 52 8 7 22 13 29 13 7 0 21 6 29
14 16 14 128 76 137 76 3 0 3 -4 -1 -9 -3 -6 10 -7 32 -4 50 8 54 13 12 14
-32 1 -30 3 36 34 64 31 71 32 88 18 9 -9 17 -19 17 -23z m121 -157 c18 -27
37 -52 42 -58 13 -16 127 -194 127 -199 0 -2 -6 -6 -12 -9 -7 -2 -5 -3 4 -2
12 2 32 -21 65 -73 61 -98 71 -114 79 -132 4 -8 27 -50 52 -93 24 -43 42 -80
40 -82 -5 -5 -88 25 -163 59 -88 40 -192 56 -463 73 -102 6 -288 -10 -323 -28
-26 -13 -44 14 -29 42 8 14 8 19 1 15 -15 -10 -13 5 4 28 25 33 19 46 -17 40
-31 -5 -32 -4 -14 10 10 8 22 13 27 11 4 -3 10 -1 14 5 6 9 -28 15 -65 11 -30
-4 180 190 213 195 4 1 26 3 50 4 l42 3 -35 7 c-28 5 -32 8 -17 15 10 4 16 14
13 21 -5 13 100 92 110 82 2 -3 -22 -21 -53 -41 -32 -20 -53 -36 -47 -37 6 0
28 11 48 25 20 14 51 32 68 41 24 13 28 18 17 26 -11 8 -10 9 4 4 10 -3 30 0
45 8 15 7 34 11 42 9 12 -4 12 -3 2 5 -10 7 -1 16 35 35 26 14 51 26 54 26 3
1 21 -20 40 -46z m-941 8 c-5 -11 -15 -23 -21 -27 -6 -3 -3 5 6 20 20 30 30
35 15 7z m-606 -106 c-10 -15 -14 -37 -12 -55 2 -16 0 -31 -6 -33 -6 -2 2 -4
17 -4 17 0 40 -11 56 -27 15 -14 30 -24 33 -20 4 3 23 9 42 14 30 7 38 5 46
-10 16 -29 82 -35 176 -14 45 10 81 21 79 25 -3 3 13 14 35 24 22 10 45 24 51
32 6 7 16 13 22 13 6 0 -3 -15 -20 -32 -18 -19 -34 -49 -38 -70 -4 -23 -13
-38 -21 -38 -8 0 -14 -5 -14 -11 0 -6 7 -8 16 -5 13 5 15 1 12 -24 -3 -17 -1
-33 4 -36 14 -9 -2 -24 -24 -24 -18 0 -19 2 -7 17 12 15 12 16 -4 10 -13 -5
-21 0 -29 18 -8 18 -15 22 -27 15 -10 -5 -23 -5 -30 -1 -7 5 -43 8 -79 9 -60
0 -63 -1 -27 -8 22 -4 43 -6 48 -3 4 2 7 -1 7 -6 0 -6 -7 -11 -15 -11 -8 0
-39 -11 -69 -25 -30 -14 -67 -30 -83 -37 -22 -9 -24 -12 -10 -15 35 -9 15 -22
-54 -34 -59 -10 -68 -15 -55 -24 14 -10 12 -12 -12 -12 -46 -1 -146 -42 -174
-73 -15 -16 -41 -36 -58 -45 -30 -16 -76 -55 -64 -55 4 0 -1 -11 -10 -25 -9
-13 -16 -29 -16 -36 0 -12 -24 -41 -79 -97 -20 -20 -30 -36 -24 -40 7 -5 7
-16 1 -32 l-9 -24 -19 29 c-13 19 -20 24 -20 14 0 -20 35 -61 44 -52 3 3 6 -5
6 -19 0 -15 -4 -28 -9 -30 -4 -1 -19 -35 -33 -75 -18 -51 -22 -76 -15 -89 8
-14 13 -9 33 32 12 27 23 55 23 62 1 7 5 20 10 30 5 9 15 36 21 58 12 39 15
42 44 38 24 -3 27 -2 11 5 -11 5 -23 7 -27 4 -5 -2 -8 0 -8 5 0 18 58 140 70
147 6 4 37 41 68 84 91 122 112 138 175 133 10 -1 16 2 13 7 -9 13 27 19 149
26 61 3 136 8 168 11 57 6 80 20 57 34 -6 4 -11 11 -11 16 1 8 -22 9 -77 5 -7
-1 -11 -5 -8 -10 3 -5 -2 -12 -12 -16 -23 -9 -179 -19 -171 -11 3 4 39 13 79
22 79 16 169 56 197 86 15 17 15 20 3 28 -12 8 -10 10 8 10 25 0 27 -14 11
-57 -7 -20 -7 -25 1 -17 8 8 21 1 46 -23 19 -18 46 -36 59 -39 14 -3 27 -14
30 -24 11 -34 73 -80 108 -80 37 0 51 8 60 34 7 17 9 18 25 2 10 -9 25 -16 33
-16 7 0 -3 -15 -24 -32 -20 -18 -37 -37 -37 -43 0 -5 7 -2 15 9 8 11 20 16 30
12 9 -3 13 -2 10 4 -3 5 8 16 24 24 27 14 29 14 34 -4 3 -11 19 -28 36 -37 37
-21 39 -29 9 -36 -13 -2 -32 -8 -42 -12 -14 -6 -17 -5 -12 3 9 14 5 15 -26 3
-58 -21 -78 -22 -78 -4 0 14 -4 12 -13 -7 -11 -21 -11 -26 2 -32 10 -4 4 -7
-17 -7 -20 -1 -31 3 -27 9 3 6 1 10 -4 10 -7 0 -9 -20 -6 -54 4 -51 3 -54 -20
-58 l-25 -5 7 73 c5 68 4 74 -13 74 -17 0 -19 -9 -22 -72 -1 -42 -7 -75 -14
-80 -18 -11 -20 -3 -10 35 10 36 5 87 -8 87 -5 0 -6 -10 -4 -22 2 -13 2 -17
-2 -10 -3 6 -10 12 -15 12 -6 0 -7 -4 -4 -10 3 -6 -6 -11 -22 -11 l-28 -2 29
-4 c26 -4 28 -7 22 -35 -3 -17 -6 -36 -6 -43 0 -16 -81 -8 -92 9 -5 7 -8 5 -8
-6 0 -10 9 -18 23 -20 17 -2 10 -7 -28 -21 -98 -36 -105 -40 -105 -51 0 -6
-16 -22 -35 -36 -19 -14 -35 -31 -35 -38 0 -12 101 63 108 81 2 4 8 4 14 1 6
-4 13 -2 17 3 3 6 16 13 29 17 16 6 22 3 22 -8 0 -9 -4 -16 -9 -16 -5 0 -11
-17 -15 -37 -3 -21 -15 -56 -26 -78 -11 -22 -18 -31 -14 -20 3 11 8 36 10 55
l4 35 -14 -40 c-8 -22 -14 -32 -15 -22 -1 17 -31 25 -31 8 0 -13 -73 -9 -82 3
-4 6 -13 5 -22 -3 -9 -8 -16 -10 -16 -6 0 4 8 14 18 22 11 9 5 8 -17 -3 -33
-15 -34 -17 -16 -30 15 -11 16 -16 5 -29 -7 -8 -16 -12 -21 -9 -9 5 -18 -23
-23 -76 -13 -132 -31 -225 -46 -240 -10 -10 -22 -24 -26 -33 -18 -29 -119
-137 -130 -137 -6 0 -19 -9 -28 -19 -13 -15 -14 -20 -4 -25 9 -4 9 -5 -2 -4
-19 2 -70 -23 -70 -34 0 -12 10 -10 26 7 9 8 20 15 27 15 6 0 -14 -18 -43 -40
-29 -22 -58 -40 -64 -40 -6 0 4 10 22 21 18 12 30 24 28 27 -3 3 -24 -7 -46
-22 -22 -14 -43 -26 -47 -26 -4 0 9 11 30 25 20 14 37 30 37 36 0 10 -31 -8
-88 -50 -18 -13 -35 -21 -39 -17 -3 3 -1 6 5 6 7 0 12 5 12 11 0 6 -8 9 -17 7
-10 -2 -17 -9 -16 -16 2 -6 -3 -9 -10 -6 -12 4 -71 -21 -267 -114 -120 -58
-181 -97 -258 -167 -19 -16 -46 -35 -60 -42 -15 -8 -19 -11 -9 -8 25 7 20 -7
-9 -29 -22 -15 -28 -16 -35 -5 -7 11 -9 10 -9 -4 0 -17 23 -48 32 -44 2 1 -9
-10 -26 -25 -31 -28 -46 -35 -46 -20 0 5 12 14 26 21 15 6 24 14 21 17 -6 7
-59 -26 -70 -43 -4 -7 -23 -13 -42 -13 -29 0 -33 3 -28 18 4 9 16 26 27 38 12
11 27 29 34 40 7 10 10 13 7 7 -3 -7 -2 -13 2 -13 14 0 36 21 78 75 61 76 69
85 78 85 5 0 18 11 29 25 11 14 25 25 31 25 6 0 1 -7 -11 -16 -12 -8 -22 -20
-22 -27 0 -6 21 10 46 35 25 26 60 53 77 62 18 8 42 24 54 35 12 12 25 21 28
21 3 0 47 26 98 58 129 80 242 134 323 152 27 6 57 16 66 21 10 5 24 9 32 9 7
0 20 7 27 16 12 15 7 16 -61 10 -41 -4 -83 -10 -93 -12 -10 -3 -20 1 -23 10
-8 21 -25 10 -18 -12 5 -13 4 -14 -4 -3 -8 11 -18 8 -56 -14 -62 -36 -67 -28
-10 15 24 19 55 43 67 53 l22 18 -24 -12 c-14 -6 -46 -27 -73 -46 -26 -19 -52
-32 -57 -29 -5 4 -13 1 -17 -5 -5 -8 -3 -9 7 -4 8 5 11 4 6 -1 -5 -5 -16 -9
-25 -9 -9 0 -17 -7 -17 -15 -1 -8 -7 -14 -14 -12 -17 4 -171 -89 -165 -100 3
-4 0 -8 -6 -8 -6 0 -30 -14 -53 -30 -23 -17 -73 -51 -112 -76 -81 -54 -105
-75 -109 -96 -2 -20 -25 -48 -38 -48 -14 0 -4 25 10 26 7 1 15 2 18 3 4 0 -5
11 -20 22 -15 12 -28 20 -30 18 -8 -9 -26 -48 -26 -56 0 -4 9 3 20 17 11 14
20 21 19 15 0 -19 -37 -55 -51 -50 -9 4 -18 -7 -27 -30 -16 -44 -24 -44 -40 0
-13 36 -37 50 -26 15 4 -13 2 -20 -7 -20 -8 0 -14 -14 -15 -37 -1 -21 -6 -46
-12 -58 -5 -11 -15 -41 -21 -68 -10 -38 -15 -45 -26 -36 -17 14 -19 -2 -3 -18
6 -6 9 -19 7 -29 -3 -13 -17 7 -44 61 -30 61 -49 86 -79 107 -22 14 -58 53
-79 87 -22 34 -45 61 -52 61 -7 0 -20 -25 -29 -55 -10 -31 -22 -52 -28 -48 -6
4 -7 1 -1 -8 9 -15 10 -20 12 -63 1 -16 5 -26 9 -23 8 8 32 -23 33 -43 0 -8 7
-28 15 -44 9 -16 14 -31 12 -33 -9 -8 -77 78 -77 96 0 11 -4 23 -10 26 -5 3
-10 18 -10 32 0 14 -8 31 -17 38 -16 12 -16 15 -1 46 9 19 21 47 27 62 6 15
15 25 21 22 5 -3 14 4 21 16 13 24 6 139 -10 183 -9 21 -7 26 17 34 15 6 36
13 46 18 14 5 17 4 12 -4 -4 -7 -3 -12 2 -12 15 0 106 52 120 70 8 8 11 9 7 3
-3 -8 0 -13 8 -13 8 0 13 9 13 22 -1 14 14 33 42 54 23 18 42 36 41 40 0 4 3
10 8 13 27 20 192 208 255 291 54 71 137 218 135 239 -1 14 -5 17 -13 11 -6
-6 -14 -7 -17 -3 -4 3 -7 -4 -7 -17 0 -13 -3 -20 -7 -17 -8 9 18 88 27 82 3
-2 7 10 7 28 0 57 15 171 25 190 5 10 14 14 20 11 7 -5 8 -2 4 5 -5 8 10 30
40 59 27 26 48 50 47 54 -2 4 9 15 25 25 15 9 37 26 50 37 12 11 22 14 22 8 0
-18 27 -14 34 4 4 9 13 14 22 10 8 -3 13 -2 10 2 -5 9 29 42 43 42 5 0 14 7
21 15 7 8 17 15 23 15 6 0 -6 -17 -26 -37 -53 -54 -107 -119 -107 -129 0 -4
-19 -29 -42 -53 -24 -25 -31 -35 -15 -22 38 34 34 16 -8 -30 -19 -22 -35 -44
-35 -50 0 -6 12 4 27 23 14 18 49 56 76 85 27 28 46 56 43 61 -8 14 48 72 70
72 10 0 14 5 10 16 -3 9 -2 12 5 9 6 -4 36 11 67 33 31 22 66 41 77 43 11 3
20 9 20 16 0 6 4 15 9 20 5 5 6 3 2 -4 -9 -16 8 -17 36 -2 15 8 19 8 14 0 -14
-22 13 -10 76 32 34 24 62 49 60 56 -1 7 1 10 6 7 11 -6 78 51 70 60 -4 3 -22
-6 -41 -20 l-35 -27 -4 26 c-5 23 3 31 71 75 42 27 77 50 79 50 1 0 -5 -11
-14 -25z m812 0 c-11 -8 -16 -15 -11 -15 15 0 -30 -43 -103 -97 -41 -30 -75
-53 -78 -50 -4 4 32 33 139 111 21 15 36 31 33 34 -8 7 14 32 28 32 6 0 2 -7
-8 -15z m-906 -18 c0 -2 -31 -26 -68 -55 -58 -44 -132 -77 -132 -59 0 7 126
86 164 103 35 15 36 15 36 11z m604 -26 c3 -5 -1 -11 -9 -15 -9 -3 -15 0 -15
9 0 16 16 20 24 6z m566 -35 c0 -2 -7 -7 -16 -10 -8 -3 -12 -2 -9 4 6 10 25
14 25 6z m-1223 -31 c-4 -8 -18 -15 -34 -15 l-28 0 30 20 c32 21 41 20 32 -5z
m-8 -51 c-6 -8 -17 -14 -23 -14 -6 0 -3 5 7 11 9 6 14 15 11 21 -4 7 -2 8 5 4
9 -6 9 -11 0 -22z m-29 11 c0 -4 -70 -45 -76 -45 -13 0 -1 18 19 28 17 8 18
11 5 11 -9 1 -20 -4 -23 -9 -4 -6 -23 -19 -43 -29 -37 -19 -42 -20 -64 -22 -7
0 -5 -4 5 -8 15 -5 9 -13 -35 -41 -29 -19 -56 -39 -60 -44 -4 -6 -8 -7 -8 -2
0 4 33 41 74 81 49 50 83 75 102 77 35 5 104 7 104 3z m-190 -30 c-7 -9 -15
-13 -19 -10 -3 3 1 10 9 15 21 14 24 12 10 -5z m980 -74 c0 -10 7 -24 15 -31
8 -7 12 -16 9 -21 -9 -15 -22 -10 -27 9 -4 14 -5 13 -6 -3 -2 -38 -22 -47 -45
-22 -35 39 -52 61 -39 54 6 -4 15 -1 20 7 4 8 19 16 33 19 14 2 28 5 33 6 4 0
7 -7 7 -18z m-201 -21 c10 0 54 -80 48 -86 -9 -9 -53 25 -65 50 -6 13 -8 35
-4 47 5 19 7 20 10 7 2 -10 7 -18 11 -18z m-97 -10 c-51 -42 -193 -77 -153
-37 9 9 14 9 21 -3 7 -11 10 -11 10 -2 0 15 94 61 125 61 19 0 19 -1 -3 -19z
m221 -36 c15 -15 24 -31 20 -37 -3 -5 -1 -7 5 -4 5 4 21 -6 35 -22 13 -16 33
-29 43 -28 15 2 18 -4 16 -22 -3 -31 -4 -31 -38 -35 -38 -3 -64 9 -93 45 l-23
30 26 -7 c16 -4 26 -2 26 5 0 6 -13 11 -28 11 -36 0 -55 33 -39 68 13 28 19
28 50 -4z m317 -3 c-5 -11 -15 -23 -21 -27 -6 -3 -3 5 6 20 20 30 30 35 15 7z
m-187 -5 c4 -11 1 -13 -10 -9 -10 4 -14 2 -10 -4 5 -7 -1 -9 -15 -5 -19 5 -20
7 -5 10 9 2 17 8 17 13 0 14 17 11 23 -5z m132 -25 c-3 -12 -15 -21 -26 -21
-25 0 -24 8 4 30 26 21 31 19 22 -9z m112 -3 c-3 -7 -5 -2 -5 12 0 14 2 19 5
13 2 -7 2 -19 0 -25z m63 14 c0 -5 -8 -17 -19 -26 -17 -16 -19 -16 -24 3 -3
13 1 21 12 24 27 8 31 7 31 -1z m-295 -24 c4 -4 3 -13 -2 -22 -7 -13 -14 -12
-48 9 l-40 24 42 -2 c23 -1 45 -6 48 -9z m-365 -8 c0 -5 -11 -10 -25 -10 -14
0 -25 5 -25 10 0 6 11 10 25 10 14 0 25 -4 25 -10z m-561 -210 c-18 -22 -34
-40 -37 -40 -2 0 0 6 5 13 5 6 17 24 26 40 10 15 22 27 28 27 5 0 -5 -18 -22
-40z m1123 -14 c-4 -31 -1 -35 28 -41 17 -4 34 -5 36 -2 3 3 -8 8 -25 12 -22
5 -31 12 -31 27 0 19 4 20 43 12 23 -4 69 -7 102 -6 56 2 64 -1 115 -39 l55
-41 -74 7 c-40 3 -80 9 -90 11 -13 5 -14 4 -1 -4 8 -5 53 -15 100 -22 87 -13
125 -34 152 -85 11 -20 11 -20 -13 0 -13 11 -18 13 -11 5 18 -21 15 -50 -6
-50 -11 0 -27 -9 -37 -20 -23 -25 -32 -25 -38 0 -4 17 -5 17 -4 -2 1 -28 -23
-68 -41 -68 -10 0 -9 9 7 35 11 19 16 35 11 35 -5 0 -17 -17 -26 -37 -12 -30
-14 -49 -7 -90 10 -56 5 -64 -22 -37 -13 13 -14 19 -4 25 21 13 3 22 -19 10
-28 -15 -88 -14 -112 1 -16 10 -24 10 -40 0 -22 -14 -136 -17 -144 -3 -3 4 33
20 80 35 51 17 84 32 81 39 -4 15 -56 41 -64 33 -4 -3 8 -11 26 -17 31 -11 34
-20 8 -25 -7 -2 -30 -10 -52 -18 -22 -8 -62 -17 -89 -21 l-48 -8 6 44 7 44
-16 -34 c-8 -18 -15 -40 -15 -47 0 -8 -11 -14 -26 -14 -21 0 -25 3 -19 18 29
71 44 128 39 148 -5 19 -2 24 12 25 11 0 14 3 7 6 -7 2 -13 13 -13 24 0 14 7
19 29 19 16 0 41 4 55 10 33 12 34 -4 6 -57 -21 -39 -26 -73 -11 -73 4 0 16
20 25 45 21 53 38 61 22 10 -6 -19 -14 -35 -18 -35 -5 0 -8 -4 -8 -10 0 -22
19 -8 29 20 5 17 18 33 28 36 10 3 26 10 35 15 10 5 28 9 40 9 17 0 19 3 10 9
-8 4 -12 12 -11 17 2 5 -10 11 -26 14 -20 4 -31 13 -36 30 -4 14 -7 19 -8 13
-1 -9 -8 -10 -27 -2 -23 8 -25 8 -15 -5 11 -13 6 -16 -26 -21 -21 -4 -50 -9
-65 -11 -25 -5 -28 -2 -29 23 l-2 28 -4 -27 c-6 -42 -25 -34 -21 8 3 33 7 38
43 49 22 7 65 22 95 34 30 11 57 20 60 21 4 0 4 -15 2 -34z m-325 -8 c-3 -8
-6 -5 -6 6 -1 11 2 17 5 13 3 -3 4 -12 1 -19z m622 -15 c24 -25 7 -22 -24 3
-20 16 -23 22 -10 17 11 -4 26 -13 34 -20z m-509 -48 c0 -44 -26 -48 -32 -5
-3 21 0 30 11 33 9 3 17 5 19 6 1 0 2 -15 2 -34z m-43 -27 c-3 -8 -6 -5 -6 6
-1 11 2 17 5 13 3 -3 4 -12 1 -19z m260 -14 c9 -8 22 -13 30 -10 8 3 12 2 9
-3 -3 -5 -19 -14 -35 -19 -30 -11 -38 -4 -47 36 -3 17 24 15 43 -4z m408 3
c13 -11 15 -16 6 -22 -8 -4 -21 1 -34 14 -17 16 -18 21 -6 21 8 0 23 -6 34
-13z m-668 -49 c-3 -7 -5 -2 -5 12 0 14 2 19 5 13 2 -7 2 -19 0 -25z m63 -3
c0 -33 -14 -48 -22 -24 -2 6 -10 -18 -17 -53 -13 -55 -31 -87 -53 -88 -3 0 2
25 13 55 11 31 22 76 26 100 5 39 9 45 29 45 21 0 24 -5 24 -35z m-85 -32
c-10 -84 -33 -145 -61 -166 -27 -20 -42 -17 -28 5 5 7 9 19 10 26 2 7 8 53 15
103 l12 89 30 0 29 0 -7 -57z m750 36 c4 -11 4 -23 1 -26 -3 -4 -6 -1 -6 6 0
8 -7 11 -15 7 -15 -5 -21 14 -8 27 12 12 22 7 28 -14z m-1719 -30 c-9 -20 -15
-27 -16 -16 0 20 19 61 26 54 2 -2 -2 -19 -10 -38z m887 34 c3 -5 -6 -30 -19
-58 -13 -27 -23 -56 -24 -64 0 -8 -2 -12 -5 -9 -5 4 8 82 21 126 4 13 20 16
27 5z m-53 -6 c0 -1 -5 -18 -10 -37 -6 -19 -12 -57 -15 -85 -3 -44 -53 -201
-60 -193 -4 4 19 91 38 147 9 25 14 48 11 53 -8 13 16 118 27 118 5 0 9 -1 9
-3z m-41 -44 c-5 -21 -14 -62 -20 -91 -5 -28 -18 -71 -29 -94 -10 -23 -16 -46
-14 -50 3 -4 -1 -5 -9 -2 -11 4 -9 22 11 97 13 51 26 106 29 122 7 46 11 55
27 55 11 0 12 -7 5 -37z m906 -68 c-5 -94 -3 -87 -25 -65 -20 20 -20 31 -3 93
2 9 9 14 15 11 6 -4 8 2 4 17 -5 17 -4 19 2 9 5 -8 8 -37 7 -65z m121 -6 c24
-32 44 -63 44 -70 0 -7 -19 14 -41 47 -23 32 -50 66 -60 75 -11 9 -19 20 -19
24 0 13 31 -18 76 -76z m-170 4 c-10 -26 -18 -8 -9 23 5 21 8 24 11 11 2 -10
1 -25 -2 -34z m104 2 c0 -5 -5 -3 -10 5 -5 8 -10 20 -10 25 0 6 5 3 10 -5 5
-8 10 -19 10 -25z m42 -29 c9 -13 20 -36 23 -52 l6 -29 -18 24 c-22 30 -44 81
-35 81 4 0 15 -11 24 -24z m-52 -37 c0 -16 -4 -29 -10 -29 -5 0 -7 -7 -4 -15
4 -8 1 -15 -5 -15 -12 0 -14 41 -5 77 8 31 24 19 24 -18z m-1090 -2 c0 -13 -6
-31 -13 -41 -13 -17 -14 -18 -20 -2 -4 10 -3 15 3 11 6 -4 13 7 16 24 8 37 14
40 14 8z m210 -24 c-7 -21 -17 -42 -23 -48 -7 -7 -8 -7 -4 0 3 6 10 30 17 54
6 23 14 41 17 38 3 -3 0 -23 -7 -44z m-250 21 c0 -6 -34 -83 -66 -148 -14 -27
-22 -51 -20 -53 3 -3 16 18 30 46 15 28 29 51 32 51 3 0 3 -3 1 -7 -2 -5 -22
-46 -45 -93 -40 -80 -88 -150 -105 -150 -4 0 8 23 28 51 19 28 33 55 30 59 -3
4 2 10 10 14 8 3 15 10 15 16 0 6 -5 8 -11 4 -8 -5 -8 -1 0 14 6 11 11 29 10
39 0 14 -3 12 -11 -7 -31 -76 -52 -120 -54 -117 -2 2 3 50 12 108 20 135 45
179 104 179 22 0 40 -2 40 -6z m370 -4 c0 -5 -5 -10 -11 -10 -5 0 -7 5 -4 10
3 6 8 10 11 10 2 0 4 -4 4 -10z m790 -6 c0 -8 4 -13 8 -10 5 3 15 -7 24 -22
13 -22 14 -36 5 -79 -10 -49 -27 -73 -27 -38 0 33 -16 12 -17 -22 -1 -29 1
-33 9 -20 8 16 13 13 39 -22 25 -35 28 -45 21 -78 l-8 -38 -22 43 c-13 23 -19
42 -14 42 4 0 8 9 9 20 3 38 -15 20 -23 -22 -4 -24 -9 -36 -12 -28 -3 8 -8 17
-11 20 -3 3 -14 20 -23 37 -12 24 -15 40 -8 63 5 17 7 39 4 48 -5 15 -4 15 9
0 20 -25 30 -22 17 3 -7 11 -9 40 -6 62 3 23 5 45 5 50 1 14 21 7 21 -9z
m-645 -14 c3 -5 2 -10 -4 -10 -5 0 -13 5 -16 10 -3 6 -2 10 4 10 5 0 13 -4 16
-10z m-160 -10 c3 -5 -1 -10 -10 -10 -9 0 -13 5 -10 10 3 6 8 10 10 10 2 0 7
-4 10 -10z m120 0 c-3 -5 3 -10 14 -10 35 0 31 -16 -5 -18 -35 -3 -42 6 -22
26 15 15 21 16 13 2z m774 -50 c0 -14 0 -41 1 -60 1 -31 2 -33 10 -12 5 12 6
30 3 39 -12 31 17 3 30 -30 10 -22 11 -48 5 -92 -12 -83 -16 -93 -29 -75 -9
12 -9 11 -4 -5 8 -24 8 -23 6 -60 l-2 -30 -19 24 c-21 25 -26 61 -11 89 12 25
20 112 10 112 -5 0 -9 -13 -9 -30 0 -37 -11 -38 -31 -2 -13 23 -14 34 -4 72 7
27 17 44 25 42 8 -2 10 3 5 15 -4 10 -10 29 -12 43 -4 24 -4 25 12 5 9 -11 15
-31 14 -45z m-819 40 c0 -13 -20 -13 -40 0 -12 8 -9 10 13 10 15 0 27 -4 27
-10z m870 -30 c27 -54 25 -62 -5 -18 -23 34 -32 58 -20 58 2 0 14 -18 25 -40z
m-510 10 c-18 -12 -78 -12 -105 0 -14 6 2 9 50 9 49 1 65 -2 55 -9z m-760 -4
c0 -3 -4 -8 -10 -11 -5 -3 -10 -1 -10 4 0 6 5 11 10 11 6 0 10 -2 10 -4z m21
-29 c-8 -8 -11 -7 -11 4 0 20 13 34 18 19 3 -7 -1 -17 -7 -23z m554 13 c-3 -4
1 -10 8 -13 6 -3 29 -12 50 -21 20 -9 37 -12 37 -7 0 5 -18 16 -40 25 -22 9
-40 17 -40 20 0 2 45 3 100 2 74 -1 94 -3 77 -11 -12 -5 -44 -27 -70 -47 -27
-21 -57 -38 -67 -38 -20 0 -75 48 -66 58 3 3 1 11 -5 19 -9 10 -8 13 0 13 7 0
9 5 5 12 -4 7 -3 8 5 4 6 -4 9 -11 6 -16z m495 -35 c-6 -15 -8 -31 -4 -36 3
-5 0 -9 -6 -9 -7 0 -10 -7 -6 -15 3 -8 1 -25 -3 -37 -7 -18 -10 -20 -15 -8 -6
17 -3 46 7 56 4 4 7 22 7 40 0 18 3 40 6 49 6 15 8 15 16 2 4 -9 4 -27 -2 -42z
m-1025 15 c-4 -12 -9 -19 -12 -17 -3 3 -2 15 2 27 4 12 9 19 12 17 3 -3 2 -15
-2 -27z m265 23 c-1 -14 -39 -58 -45 -52 -10 11 14 59 30 59 8 0 15 -3 15 -7z
m214 1 c9 -3 16 -10 16 -14 0 -10 -49 0 -56 11 -6 10 17 12 40 3z m-314 -8 c0
-3 -4 -8 -10 -11 -5 -3 -10 -1 -10 4 0 6 5 11 10 11 6 0 10 -2 10 -4z m170 -2
c0 -15 -48 -73 -55 -66 -5 4 -6 2 -2 -3 6 -11 -28 -63 -36 -55 -3 3 8 33 23
68 22 47 34 62 49 62 12 0 21 -2 21 -6z m500 -1 c0 -2 -7 -14 -15 -27 -11 -16
-22 -22 -36 -19 -11 3 -18 11 -15 19 6 15 -29 11 -50 -7 -7 -6 -19 -9 -26 -6
-20 7 73 45 110 44 17 -1 32 -2 32 -4z m-900 -10 c-1 -11 -59 -119 -60 -111
-1 17 42 118 51 118 5 0 9 -3 9 -7z m551 -19 c30 -15 54 -42 46 -50 -3 -4 -17
5 -30 18 l-25 25 -43 -39 c-23 -21 -38 -38 -33 -38 6 0 15 5 20 10 12 12 49
-23 40 -38 -3 -5 -37 -25 -76 -43 -40 -20 -70 -40 -70 -49 -1 -11 -3 -10 -11
4 -9 14 -8 20 2 27 10 6 8 13 -11 29 l-24 21 39 74 39 75 56 -7 c30 -3 67 -12
81 -19z m-532 -30 c-35 -85 -98 -212 -108 -218 -7 -5 -9 -1 -5 11 5 16 4 16
-10 -1 -23 -29 -20 -14 9 35 14 24 25 38 25 31 0 -7 5 -10 10 -7 14 9 12 22
-4 28 -18 7 -83 -102 -67 -112 14 -9 -24 -71 -43 -71 -8 0 -16 -6 -19 -12 -2
-7 -7 -10 -11 -6 -4 3 5 24 19 47 15 22 24 45 19 52 -4 8 -3 9 5 5 6 -4 14 0
19 11 12 29 73 133 79 133 2 0 1 -9 -2 -20 -10 -32 24 -25 36 8 19 52 53 122
56 118 2 -2 -2 -16 -8 -32z m67 -5 c-9 -19 -15 -26 -16 -16 0 17 21 59 27 53
2 -2 -3 -18 -11 -37z m-62 -49 c-15 -27 -29 -48 -32 -46 -2 3 3 17 12 33 9 15
21 42 27 58 6 17 13 24 16 18 2 -7 -8 -35 -23 -63z m236 66 c0 -2 -8 -10 -17
-17 -16 -13 -17 -12 -4 4 13 16 21 21 21 13z m1179 -253 c24 -78 22 -95 -4
-26 -10 27 -40 97 -66 156 -27 60 -49 114 -48 120 1 20 95 -180 118 -250z
m-1219 239 c0 -2 -9 -15 -20 -29 -11 -14 -20 -22 -20 -17 0 4 -5 3 -12 -4 -17
-17 -33 -15 -18 3 7 8 19 15 26 15 12 0 18 11 16 31 -1 3 6 6 14 6 8 0 14 -2
14 -5z m386 -32 l29 -1 -35 -19 c-46 -25 -52 -25 -71 8 -21 37 -3 58 27 31 11
-10 33 -19 50 -19z m-353 -32 c-19 -33 -48 -52 -37 -24 3 9 10 13 15 10 5 -3
9 2 9 11 0 24 22 63 28 47 2 -7 -5 -26 -15 -44z m-51 -23 c-15 -30 -39 -51
-48 -42 -2 1 8 16 21 31 14 16 25 33 25 38 0 4 4 8 10 8 5 0 2 -16 -8 -35z
m-155 3 c-3 -8 -6 -5 -6 6 -1 11 2 17 5 13 3 -3 4 -12 1 -19z m98 -18 c-9 -16
-18 -30 -21 -30 -2 0 2 14 11 30 9 17 18 30 21 30 2 0 -2 -13 -11 -30z m971
-15 c3 -19 10 -35 15 -35 5 0 9 -9 9 -20 0 -11 4 -20 8 -20 16 0 42 -70 37
-102 -4 -28 -3 -29 4 -8 8 25 8 24 26 -15 10 -22 25 -54 33 -71 12 -24 12 -35
2 -53 -6 -13 -9 -25 -6 -28 3 -3 10 5 15 18 l9 24 11 -27 c7 -20 7 -37 -3 -65
l-13 -38 -8 34 c-4 19 -14 41 -22 49 -10 11 -13 26 -8 51 4 26 3 32 -5 21 -9
-13 -11 -13 -20 0 -6 8 -13 27 -17 43 -3 15 -9 27 -12 27 -12 0 -35 73 -33
105 1 25 0 27 -8 10 -7 -17 -9 -15 -9 13 -1 18 -5 31 -11 27 -11 -7 -34 71
-26 92 9 22 25 6 32 -32z m189 -30 c-3 -30 -11 -55 -17 -55 -6 0 -8 9 -4 23 4
12 10 39 13 60 9 58 16 35 8 -28z m-1274 14 c-9 -22 -10 -22 -10 -3 -1 11 2
24 6 27 12 12 14 0 4 -24z m-28 2 c-5 -20 -43 -61 -43 -47 0 9 39 66 45 66 2
0 1 -9 -2 -19z m278 -15 c-9 -18 -18 -29 -19 -24 -4 8 24 58 32 58 2 0 -4 -15
-13 -34z m1053 -7 c-3 -6 -1 -15 5 -19 13 -8 48 -124 61 -200 4 -25 10 -52 13
-60 4 -8 8 -58 10 -112 3 -84 2 -95 -12 -90 -14 5 -14 3 0 -14 14 -16 15 -32
8 -99 -5 -44 -6 -89 -4 -100 2 -11 -1 -8 -7 8 -15 34 -26 34 -34 2 -5 -22 -9
-24 -21 -13 -14 11 -15 9 -10 -17 5 -23 1 -37 -18 -60 -14 -16 -25 -24 -25
-17 0 7 -4 11 -10 7 -5 -3 -7 -12 -4 -20 6 -14 -75 -155 -88 -155 -16 0 -7 24
40 103 26 45 58 108 71 140 14 35 27 54 31 47 5 -7 9 -2 12 14 3 14 2 23 -2
21 -4 -3 -11 5 -14 18 -31 103 -35 128 -26 152 5 14 6 25 1 25 -5 0 -11 -6
-13 -12 -3 -8 -9 -5 -16 8 -8 15 -8 32 -1 60 10 36 12 37 25 20 8 -12 11 -29
7 -44 -4 -17 -2 -23 6 -18 6 4 11 1 11 -8 0 -9 5 -16 10 -16 6 0 10 -6 10 -13
0 -23 43 -153 47 -141 2 5 -8 45 -21 87 -13 42 -23 93 -21 114 2 32 2 33 -4 8
-4 -20 -9 -26 -14 -18 -9 14 1 83 12 83 4 0 20 -27 35 -61 15 -34 29 -59 32
-56 3 3 -2 19 -10 36 -9 16 -16 40 -16 52 0 12 -3 19 -7 15 -4 -4 -15 14 -25
40 -13 33 -16 50 -8 58 13 13 13 26 0 26 -5 0 -10 -8 -10 -17 0 -13 -3 -14
-11 -6 -8 8 -8 23 -2 50 l9 38 18 -33 c9 -18 21 -30 26 -27 6 4 0 20 -13 38
-16 22 -23 42 -21 64 6 58 -14 45 -22 -14 -4 -32 -7 -60 -6 -63 0 -3 -3 -9 -7
-15 -4 -5 -8 -26 -10 -44 -2 -42 -9 -51 -22 -31 -10 15 -3 81 9 90 4 3 7 13 8
23 2 46 5 58 12 54 4 -3 7 9 8 26 4 127 5 132 15 114 5 -9 7 -22 3 -28z
m-1230 16 c-4 -8 -11 -15 -16 -15 -6 0 -5 6 2 15 7 8 14 15 16 15 2 0 1 -7 -2
-15z m96 -17 c-16 -13 -26 -16 -28 -8 -3 7 -13 3 -28 -11 -13 -12 -24 -18 -24
-12 0 6 11 18 25 27 14 9 25 14 25 11 0 -4 10 1 22 9 31 22 38 8 8 -16z m145
12 c-3 -11 -3 -20 2 -20 5 0 9 -9 10 -20 1 -11 -3 -20 -8 -20 -5 0 -14 -10
-19 -22 -8 -22 -9 -22 -9 5 -1 15 2 26 7 26 19 -3 22 3 12 22 -7 11 -9 27 -6
35 8 22 18 17 11 -6z m840 -31 c9 -17 14 -38 10 -47 -5 -14 -9 -13 -20 8 -14
24 -20 70 -10 70 2 0 12 -14 20 -31z m-1020 -29 c-10 -11 -21 -17 -24 -14 -3
3 3 12 13 20 28 20 32 17 11 -6z m-138 -12 c-3 -8 -6 -5 -6 6 -1 11 2 17 5 13
3 -3 4 -12 1 -19z m184 -1 c-10 -9 -11 -8 -5 6 3 10 9 15 12 12 3 -3 0 -11 -7
-18z m54 -11 c-9 -14 -14 -30 -11 -35 7 -11 -24 -81 -35 -81 -15 0 -21 22 -9
30 8 5 9 13 4 21 -6 12 -5 12 9 0 15 -12 17 -11 17 3 0 9 -5 16 -10 16 -6 0 2
18 16 40 15 22 29 38 31 36 3 -2 -3 -16 -12 -30z m144 -71 c1 -47 0 -85 -4
-85 -14 0 -32 27 -30 45 11 86 13 138 5 120 -6 -15 -9 -16 -9 -4 -1 9 2 19 6
23 16 16 28 -21 32 -99z m-449 92 c0 -2 -9 -12 -20 -22 -24 -21 -27 -14 -4 9
15 15 24 20 24 13z m400 -112 l0 -95 -26 0 c-14 0 -23 4 -19 9 6 11 26 104 30
141 4 36 4 40 10 40 3 0 5 -43 5 -95z m883 26 c-3 -30 -2 -32 12 -17 9 9 14
20 10 25 -7 13 5 61 15 61 15 0 18 -39 4 -65 -7 -15 -13 -29 -13 -33 1 -4 1
-17 0 -29 -1 -28 -21 -31 -21 -4 0 11 -5 23 -10 26 -19 12 -41 66 -35 86 7 20
7 20 24 2 12 -12 16 -29 14 -52z m-1437 27 c-18 -26 -22 -17 -5 14 6 11 13 17
16 15 3 -3 -2 -16 -11 -29z m483 -27 c-6 -30 -16 -51 -24 -51 -10 0 -8 13 8
54 12 30 23 53 25 52 1 -2 -3 -26 -9 -55z m1111 39 c0 -11 -2 -20 -4 -20 -2 0
-6 9 -9 20 -3 11 -1 20 4 20 5 0 9 -9 9 -20z m-1629 -17 c-12 -20 -14 -14 -5
12 4 9 9 14 11 11 3 -2 0 -13 -6 -23z m289 17 c0 -5 -5 -10 -11 -10 -5 0 -7 5
-4 10 3 6 8 10 11 10 2 0 4 -4 4 -10z m527 -12 c0 -7 8 -42 18 -78 36 -134 35
-132 14 -127 -10 3 -19 2 -19 -3 0 -4 9 -10 20 -13 19 -5 20 -14 20 -169 0
-174 -10 -239 -54 -367 -29 -84 -123 -264 -172 -331 -79 -106 -100 -134 -109
-144 -5 -6 -42 -49 -82 -96 -73 -87 -138 -151 -231 -228 -28 -24 -50 -48 -46
-53 3 -5 -1 -7 -8 -4 -7 3 -31 -11 -53 -31 -39 -34 -173 -117 -265 -164 -25
-12 -53 -27 -63 -32 -120 -61 -297 -145 -352 -167 -11 -5 -33 -14 -50 -21 -94
-40 -151 -60 -166 -60 -10 0 -19 -5 -21 -12 -3 -8 -30 -1 -84 22 -43 18 -92
37 -109 41 -120 31 -159 39 -229 45 l-79 7 29 24 c25 20 348 239 396 268 99
60 105 62 149 55 24 -4 75 -13 112 -19 38 -6 99 -22 135 -35 37 -14 122 -44
189 -68 67 -23 124 -40 127 -37 9 9 -4 39 -16 39 -6 0 -8 -6 -5 -14 5 -13
-106 22 -191 61 -65 29 -148 54 -227 68 -149 26 -148 26 -128 40 10 6 43 25
73 41 30 16 57 32 60 35 3 4 80 45 173 93 l167 86 48 -11 c159 -36 239 -75
324 -157 59 -57 72 -52 17 6 -75 80 -195 141 -319 160 l-55 9 30 12 c47 19
129 62 140 72 18 18 -13 9 -73 -21 -34 -16 -68 -30 -76 -30 -9 0 -16 -4 -16
-10 0 -5 -5 -10 -12 -10 -6 0 -42 -15 -78 -34 -39 -20 -71 -31 -79 -27 -15 10
2 22 118 82 46 24 96 50 110 58 41 21 168 100 264 163 48 31 93 55 101 52 7
-3 27 6 44 20 16 15 42 26 56 26 27 0 34 7 141 125 28 31 35 35 30 18 -4 -14
-2 -23 4 -23 6 0 11 9 11 19 0 11 4 22 9 25 4 3 11 23 14 45 3 22 14 53 26 69
18 26 29 30 110 42 86 12 151 38 151 60 0 5 -5 10 -11 10 -5 0 -8 -4 -5 -9 3
-4 -18 -15 -47 -24 -56 -17 -167 -31 -167 -21 0 3 13 24 28 47 25 36 43 79 94
222 23 62 31 51 24 -35 -8 -103 -20 -151 -46 -182 -18 -22 -19 -22 -20 -3 0
16 -2 17 -10 5 -6 -9 -5 -19 2 -28 31 -37 82 84 93 219 6 79 9 89 37 115 49
48 71 90 58 114 -15 28 -23 25 -15 -8 4 -22 -1 -36 -31 -70 -19 -23 -40 -40
-45 -36 -5 3 -9 25 -9 49 0 24 -5 68 -11 96 l-11 53 58 52 c63 57 71 61 71 42z
m-866 -45 c-5 -10 -22 -29 -37 -43 -26 -23 -25 -22 5 18 34 43 49 55 32 25z
m33 -39 c-20 -31 -35 -44 -44 -40 -3 2 -13 -5 -22 -16 -17 -17 -17 -18 -1 -18
15 0 14 -2 -3 -19 -10 -10 -20 -17 -22 -16 -2 2 -19 -3 -37 -11 -28 -11 -22
-2 46 68 43 45 79 87 79 92 0 6 4 6 11 -1 8 -8 6 -19 -7 -39z m563 4 c-3 -8
-6 -5 -6 6 -1 11 2 17 5 13 3 -3 4 -12 1 -19z m-870 6 c-3 -3 -12 -4 -19 -1
-8 3 -5 6 6 6 11 1 17 -2 13 -5z m343 -2 c0 -10 -22 -32 -32 -32 -5 0 -3 9 4
20 13 20 28 27 28 12z m230 -2 c-8 -5 -22 -9 -30 -9 -10 0 -8 3 5 9 27 12 43
12 25 0z m-620 -4 c0 -3 -13 -11 -30 -20 -16 -8 -30 -11 -30 -6 0 7 23 18 58
29 1 1 2 -1 2 -3z m567 -12 c-3 -3 -12 -4 -19 -1 -8 3 -5 6 6 6 11 1 17 -2 13
-5z m87 -9 c-4 -8 -14 -15 -23 -15 -14 1 -13 3 3 15 25 19 27 19 20 0z m86 -6
c0 -6 -12 -28 -27 -50 -26 -36 -32 -39 -69 -36 l-42 2 25 30 c14 17 42 38 62
47 44 20 51 21 51 7z m51 -42 c-7 -17 -18 -27 -30 -27 -11 0 -23 -4 -26 -10
-3 -5 -13 -10 -21 -10 -12 0 -12 4 -2 20 7 11 21 18 33 16 11 -2 14 -1 8 1
-17 6 -16 15 5 41 14 17 19 19 30 8 9 -9 10 -19 3 -39z m75 29 c-3 -12 -6 -24
-6 -28 0 -5 -3 -8 -7 -8 -5 0 -8 13 -9 28 -1 19 4 29 13 29 10 0 13 -7 9 -21z
m181 -8 c-3 -8 -6 -5 -6 6 -1 11 2 17 5 13 3 -3 4 -12 1 -19z m-632 -8 c-3 -5
-12 -10 -18 -10 -7 0 -6 4 3 10 19 12 23 12 15 0z m55 6 c0 -2 -9 -6 -20 -9
-11 -3 -18 -1 -14 4 5 9 34 13 34 5z m150 -15 c0 -5 -7 -14 -15 -21 -16 -14
-18 -10 -9 14 6 17 24 22 24 7z m395 -34 c15 -99 -3 -186 -38 -187 -10 0 -1
82 14 142 5 21 7 49 3 63 -4 15 -2 25 4 25 6 0 14 -20 17 -43z m-680 13 c-10
-11 -21 -18 -23 -15 -3 3 3 12 14 20 27 20 30 18 9 -5z m495 -6 c0 -8 -9 -14
-20 -14 -18 0 -19 3 -10 20 12 22 30 18 30 -6z m227 -6 c-3 -7 -5 -2 -5 12 0
14 2 19 5 13 2 -7 2 -19 0 -25z m876 10 c3 -13 2 -39 -2 -58 l-8 -35 -11 27
c-12 28 -6 88 8 88 4 0 10 -10 13 -22z m-2203 1 c-33 -22 -92 -50 -97 -45 -3
2 17 16 44 30 48 25 81 35 53 15z m769 -42 c-7 -28 -15 -37 -27 -35 -22 5 -17
38 8 59 11 9 18 19 16 22 -2 2 1 2 5 -2 5 -4 4 -24 -2 -44z m45 39 c-21 -15
-30 -14 -19 3 3 6 14 11 23 11 13 0 13 -2 -4 -14z m380 0 c-10 -8 -21 -12 -24
-10 -5 6 21 24 34 24 6 0 1 -6 -10 -14z m-344 -10 c0 -8 -7 -16 -15 -20 -13
-4 -14 -2 -5 14 13 23 20 26 20 6z m374 -8 c-2 -13 -7 -38 -10 -56 -5 -25 -9
-30 -19 -22 -26 21 -24 59 4 80 14 11 27 20 28 20 1 0 0 -10 -3 -22z m-81 -3
c-3 -9 -8 -14 -10 -11 -3 3 -2 9 2 15 9 16 15 13 8 -4z m-688 -5 c-3 -5 -16
-15 -28 -21 -21 -10 -21 -9 2 10 25 23 36 27 26 11z m265 -9 c0 -12 -23 -28
-37 -25 -7 1 -21 2 -30 3 -11 1 -4 7 17 15 44 17 50 18 50 7z m524 -30 c-4
-17 -9 -30 -11 -27 -3 2 -2 19 2 36 9 41 17 33 9 -9z m-677 3 c-3 -3 -12 -4
-19 -1 -8 3 -5 6 6 6 11 1 17 -2 13 -5z m221 -14 c-7 -10 -14 -17 -17 -15 -4
4 18 35 25 35 2 0 -1 -9 -8 -20z m-123 0 c4 -6 10 -8 15 -5 15 9 60 -6 60 -21
0 -8 -5 -14 -12 -14 -9 0 -9 -3 0 -12 20 -20 13 -32 -8 -13 -11 10 -17 22 -13
28 3 5 2 7 -4 4 -5 -3 -22 5 -39 18 -16 13 -24 24 -17 25 6 0 15 -5 18 -10z
m664 -74 c-9 -8 -10 -7 -5 7 3 10 7 33 8 50 1 28 2 28 5 -7 3 -22 -1 -43 -8
-50z m-1134 55 c-14 -13 -210 -111 -222 -111 -5 0 -32 -16 -59 -35 -27 -19
-57 -35 -67 -35 -37 0 -1 23 132 86 75 36 154 73 176 84 46 22 53 24 40 11z
m1122 -13 c-3 -8 -6 -5 -6 6 -1 11 2 17 5 13 3 -3 4 -12 1 -19z m-1072 2 c-8
-14 8 -13 22 1 6 6 17 9 25 7 8 -3 1 -11 -19 -21 -37 -19 -47 -21 -38 -7 9 15
-13 12 -41 -6 -13 -9 -27 -14 -30 -11 -3 3 11 15 33 26 43 22 57 26 48 11z
m931 -39 c3 -29 -20 -101 -32 -101 -4 0 -3 21 1 48 14 96 24 114 31 53z
m-1041 -20 c-6 -5 -23 -12 -40 -15 l-30 -6 30 14 c35 18 54 20 40 7z m135 5
c0 -3 -4 -8 -10 -11 -5 -3 -10 -1 -10 4 0 6 5 11 10 11 6 0 10 -2 10 -4z m-47
-45 c-22 -37 -29 -39 -35 -6 -3 13 -1 22 3 19 5 -3 9 0 9 6 0 6 4 9 9 5 5 -3
13 0 16 6 16 25 14 -1 -2 -30z m1927 -8 c0 -13 5 -23 11 -23 6 0 8 -9 4 -20
-3 -11 -2 -20 2 -20 5 0 14 -19 20 -41 9 -36 8 -49 -9 -88 l-21 -46 -8 30 c-5
17 -6 38 -3 49 4 12 2 16 -5 12 -11 -7 -16 11 -13 47 1 9 -2 17 -7 17 -20 0
-22 42 -5 86 17 46 34 45 34 -3z m-950 -6 c0 -7 -12 -20 -25 -30 l-25 -18 17
35 c15 33 33 40 33 13z m-1530 -3 c-8 -8 -23 -20 -34 -25 -13 -6 -10 0 9 15
34 29 43 33 25 10z m1610 8 c0 -24 -32 -124 -54 -167 -27 -55 -34 -57 -12 -3
8 19 18 61 21 93 7 58 18 85 36 85 5 0 9 -4 9 -8z m-1324 -71 c-3 -5 -16 -11
-28 -14 -22 -6 -22 -5 -4 8 22 17 40 20 32 6z m-326 -9 c0 -4 -15 -16 -32 -26
l-33 -17 30 25 c33 29 35 30 35 18z m165 -2 c-3 -5 -12 -10 -18 -10 -7 0 -6 4
3 10 19 12 23 12 15 0z m80 -20 c-3 -5 -12 -10 -18 -10 -7 0 -6 4 3 10 19 12
23 12 15 0z m-765 -31 c0 -6 -4 -7 -10 -4 -5 3 -10 11 -10 16 0 6 5 7 10 4 6
-3 10 -11 10 -16z m479 -6 c-24 -31 -39 -45 -39 -37 0 8 41 54 48 54 2 0 -2
-8 -9 -17z m-436 -51 c16 -18 27 -49 42 -125 3 -14 0 -17 -12 -13 -9 4 -19 2
-23 -4 -10 -16 -55 23 -70 60 -14 34 -8 49 14 31 12 -10 13 -9 9 9 -4 14 -11
19 -23 15 -17 -5 -19 9 -11 68 1 11 53 -17 74 -41z m551 4 c-10 -8 -21 -12
-24 -10 -5 6 21 24 34 24 6 0 1 -6 -10 -14z m-323 -129 c-10 -9 -11 -8 -5 6 3
10 9 15 12 12 3 -3 0 -11 -7 -18z m2810 -10 c-10 -9 -11 -8 -5 6 3 10 9 15 12
12 3 -3 0 -11 -7 -18z m-2892 -62 c0 -5 -6 -1 -14 9 -8 11 -15 27 -15 35 1 17
29 -26 29 -44z m-119 30 c0 -8 -4 -15 -10 -15 -5 0 -7 7 -4 15 4 8 8 15 10 15
2 0 4 -7 4 -15z m380 12 c0 -2 -12 -17 -28 -34 -23 -26 -31 -30 -47 -21 -11 6
-23 16 -27 22 -4 6 -12 5 -22 -4 -9 -7 -19 -11 -21 -8 -3 3 2 11 10 18 12 10
21 10 40 2 18 -8 24 -8 22 0 -1 6 4 13 12 16 8 3 11 0 7 -7 -11 -17 20 -13 34
4 12 14 20 19 20 12z m2603 -49 c-15 -55 -46 -132 -64 -158 -5 -8 -12 -23 -16
-33 -3 -11 -12 -16 -20 -12 -10 3 -13 1 -10 -9 5 -12 -31 -72 -82 -136 l-20
-25 6 59 c5 47 3 57 -7 51 -9 -5 -11 -4 -6 4 4 6 12 9 17 6 5 -3 22 16 38 42
16 26 36 56 45 66 9 9 16 21 16 25 0 19 103 170 116 172 1 0 -5 -24 -13 -52z
m-1063 -2 c-12 -20 -36 -46 -53 -58 -27 -19 -25 -15 16 32 26 30 47 59 47 64
0 5 3 7 6 3 4 -3 -4 -22 -16 -41z m-1690 30 c0 -3 -4 -8 -10 -11 -5 -3 -10 -1
-10 4 0 6 5 11 10 11 6 0 10 -2 10 -4z m44 -50 c7 -28 -14 -80 -47 -118 -27
-31 -35 -35 -34 -15 2 26 -16 87 -29 98 -21 17 -17 28 13 40 18 7 28 6 33 -1
4 -6 13 -5 26 5 26 20 31 19 38 -9z m54 -18 c7 -7 12 -19 12 -27 0 -11 -4 -10
-20 4 -21 19 -26 35 -12 35 4 0 13 -5 20 -12z m1522 3 c0 -11 -97 -109 -120
-121 -9 -5 -19 -3 -26 4 -8 9 -1 19 30 41 l41 28 -30 -33 -30 -33 30 20 c17
12 46 39 65 61 39 45 40 46 40 33z m-11 -78 c-27 -35 -74 -73 -88 -73 -19 0
12 35 59 66 43 28 46 29 29 7z m-1599 -46 c0 -2 -12 -14 -27 -28 l-28 -24 24
28 c23 25 31 32 31 24z m1449 -50 c-2 -1 -13 -9 -24 -17 -19 -14 -19 -14 -6 3
7 9 18 17 24 17 6 0 8 -1 6 -3z m1202 -30 c-10 -9 -11 -8 -5 6 3 10 9 15 12
12 3 -3 0 -11 -7 -18z m-36 -66 c-6 -32 -42 -95 -69 -120 -23 -22 -26 -22 -26
-6 0 10 11 33 25 51 14 18 25 37 25 43 0 6 8 11 17 11 9 0 13 3 10 7 -4 3 -2
12 4 20 15 18 19 16 14 -6z m-1815 -316 c0 -10 -81 -45 -91 -40 -5 4 -8 1 -7
-7 2 -7 -4 -13 -12 -13 -8 0 -17 -3 -20 -6 -7 -9 -190 -99 -190 -94 0 4 122
75 225 131 54 29 95 42 95 29z m640 -179 c0 -2 -8 -10 -17 -17 -16 -13 -17
-12 -4 4 13 16 21 21 21 13z m950 1 c0 -2 -15 -16 -32 -33 l-33 -29 29 33 c28
30 36 37 36 29z m-710 -642 c0 -2 -10 -9 -22 -15 -22 -11 -22 -10 -4 4 21 17
26 19 26 11z m-60 -40 c-16 -19 -7 -19 30 0 17 9 30 13 30 9 0 -10 -29 -30
-88 -60 -28 -15 -50 -29 -47 -32 2 -3 16 3 30 12 28 19 34 11 8 -10 -10 -8
-64 -46 -121 -85 -92 -63 -102 -68 -88 -42 14 27 82 88 98 88 4 0 14 9 23 20
9 11 14 14 10 8 -4 -9 -1 -11 9 -7 9 3 14 10 11 14 -3 5 15 21 40 36 25 14 43
29 41 32 -6 5 12 32 21 32 3 0 0 -7 -7 -15z m-2306 -138 c-45 -50 -108 -162
-140 -247 -19 -50 -34 -95 -34 -101 0 -5 -11 -27 -25 -47 -32 -46 -31 -43 5
59 55 155 186 386 208 365 3 -3 -4 -16 -14 -29z m2219 -25 c-171 -157 -281
-246 -161 -129 65 63 198 176 208 177 3 0 -18 -21 -47 -48z m-163 -86 c0 -2
-8 -10 -17 -17 -16 -13 -17 -12 -4 4 13 16 21 21 21 13z m-20 -41 c0 -2 -10
-9 -22 -15 -22 -11 -22 -10 -4 4 21 17 26 19 26 11z m-60 -9 c0 -2 -8 -10 -17
-17 -16 -13 -17 -12 -4 4 13 16 21 21 21 13z m-45 -82 c-16 -13 -33 -24 -38
-24 -14 0 24 49 41 53 29 6 28 -4 -3 -29z m-84 -55 c-23 -18 -28 -28 -19 -32
9 -4 10 -8 2 -14 -6 -4 -15 -19 -19 -32 -8 -25 -55 -84 -62 -77 -6 5 44 103
56 111 6 3 8 12 5 19 -3 7 9 28 27 47 24 25 33 30 37 20 3 -9 -9 -27 -27 -42z
m-106 -8 c-3 -6 -11 -11 -16 -11 -5 0 -4 6 3 14 14 16 24 13 13 -3z m25 -31
c-6 -12 -14 -20 -17 -17 -2 3 1 14 8 26 7 11 15 18 17 16 2 -2 -2 -13 -8 -25z
m-136 -31 c-8 -13 -74 -48 -74 -39 0 5 15 20 33 35 27 22 28 25 9 20 -22 -6
-22 -5 -10 14 l13 21 17 -22 c9 -12 15 -25 12 -29z m36 21 c0 -5 -4 -10 -10
-10 -5 0 -10 5 -10 10 0 6 5 10 10 10 6 0 10 -4 10 -10z m21 -23 c-10 -9 -11
-8 -5 6 3 10 9 15 12 12 3 -3 0 -11 -7 -18z m-33 -27 c-11 -17 -100 -90 -111
-90 -2 0 -2 12 1 28 2 20 15 34 45 52 23 13 48 23 55 22 6 -2 12 3 12 9 0 7 3
10 6 7 3 -3 -1 -16 -8 -28z m93 -16 c-21 -38 -21 -38 -21 -10 0 16 8 35 17 42
26 18 27 11 4 -32z m-41 -10 c0 -26 -28 -92 -45 -106 -11 -9 -21 -15 -22 -14
-7 7 31 115 38 110 5 -3 9 0 9 5 0 6 5 11 10 11 6 0 10 -3 10 -6z m-75 -81
c-11 -56 -27 -75 -98 -114 -16 -9 -18 -8 -13 8 3 10 7 32 8 50 2 27 5 30 17
20 12 -9 13 -9 7 1 -4 7 -1 12 8 12 9 0 16 4 16 10 0 8 57 70 65 70 1 0 -4
-25 -10 -57z m-1844 18 c-7 -11 -13 -41 -15 -66 -2 -26 -7 -49 -10 -52 -3 -4
-6 -11 -6 -17 0 -6 4 -5 9 3 14 22 1 -218 -14 -254 l-12 -30 -13 41 c-19 63
13 330 47 382 18 29 29 22 14 -7z m1926 7 c-3 -8 -6 -5 -6 6 -1 11 2 17 5 13
3 -3 4 -12 1 -19z m80 -43 c-6 -20 -17 -39 -24 -42 -7 -3 -11 -17 -9 -31 2
-15 1 -20 -1 -12 -3 8 -10 21 -16 29 -9 10 -6 18 12 32 13 11 20 19 16 19 -5
0 0 9 10 20 19 21 7 28 -13 8 -7 -7 -12 -8 -12 -3 0 5 -7 0 -16 -11 -14 -18
-15 -18 -4 4 6 12 16 20 21 16 6 -3 13 3 16 15 4 17 7 18 19 7 10 -11 11 -21
1 -51z m-1895 -15 c3 -16 1 -30 -4 -30 -4 0 -8 9 -8 19 0 11 -3 27 -7 37 -4
11 -3 15 4 11 6 -4 13 -20 15 -37z m1755 -43 c-26 -38 -45 -40 -25 -3 11 21
40 47 46 41 2 -1 -8 -19 -21 -38z m49 5 c-14 -14 -16 -14 -16 -1 0 20 23 44
29 28 2 -6 -4 -18 -13 -27z m94 -12 c-5 -22 -8 -27 -9 -13 -1 21 9 56 14 51 2
-2 0 -19 -5 -38z m-295 -20 c-5 -31 -14 -44 -37 -56 -31 -16 -55 -10 -25 7 9
6 17 15 17 21 0 6 -9 3 -20 -7 -13 -12 -18 -25 -14 -38 5 -15 3 -19 -9 -14 -9
3 -17 2 -19 -3 -2 -5 -9 -6 -16 -1 -9 5 7 27 54 75 37 36 69 65 71 62 3 -3 2
-23 -2 -46z m-1598 -12 c-3 -7 -5 -2 -5 12 0 14 2 19 5 13 2 -7 2 -19 0 -25z
m1701 -10 c-5 -24 -14 -51 -19 -62 -6 -10 -12 -37 -14 -60 -9 -92 -14 -109
-54 -169 l-42 -62 2 48 c3 46 12 60 23 35 3 -7 3 -3 1 8 -4 17 2 25 27 37 27
14 29 17 11 17 -12 0 -25 -4 -28 -10 -13 -21 -27 -9 -21 18 3 15 8 61 11 102
3 44 10 77 17 81 7 5 29 19 48 33 19 14 38 25 41 26 4 0 3 -19 -3 -42z m132
22 c0 -11 -4 -20 -10 -20 -5 0 -10 9 -10 20 0 11 5 20 10 20 6 0 10 -9 10 -20z
m-96 -34 c-9 -15 -19 -25 -21 -22 -5 5 30 56 35 51 2 -2 -4 -15 -14 -29z m42
-45 c-15 -14 -16 -13 -16 13 0 15 6 37 13 49 11 21 12 21 15 -12 2 -21 -2 -40
-12 -50z m74 25 c0 -39 -12 -86 -20 -81 -5 3 -6 15 -2 27 4 16 2 19 -9 13 -11
-6 -12 -5 -1 6 6 7 12 23 12 36 0 13 5 23 10 23 6 0 10 -11 10 -24z m33 4 c3
-11 1 -20 -4 -20 -5 0 -9 9 -9 20 0 11 2 20 4 20 2 0 6 -9 9 -20z m-178 -86
c-9 -27 -18 -55 -21 -63 -10 -30 -12 -4 -3 43 8 45 26 82 36 73 2 -3 -3 -26
-12 -53z m105 -6 c0 -9 -60 -41 -66 -35 -3 2 6 20 18 39 20 30 25 33 35 19 7
-9 13 -19 13 -23z m73 -5 c-7 -2 -13 -23 -14 -46 -1 -34 -2 -37 -8 -17 -10 36
-1 70 18 69 10 0 11 -2 4 -6z m-46 -35 c-3 -8 -6 -5 -6 6 -1 11 2 17 5 13 3
-3 4 -12 1 -19z m-22 -19 c6 -25 -2 -49 -39 -125 -26 -52 -49 -94 -53 -94 -6
0 4 154 14 200 4 24 31 46 60 49 6 0 14 -13 18 -30z m85 -80 c0 -52 -14 -60
-23 -12 -4 21 9 63 20 63 2 0 3 -23 3 -51z m-268 -82 c-6 -23 -14 -73 -17
-110 -5 -43 -14 -76 -26 -90 -18 -22 -18 -21 -19 71 0 88 2 95 33 142 35 54
44 50 29 -13z m438 -69 c0 -6 -7 -5 -15 2 -8 7 -15 17 -15 22 0 6 7 5 15 -2 8
-7 15 -17 15 -22z"/>
<path d="M3258 5583 c7 -3 16 -2 19 1 4 3 -2 6 -13 5 -11 0 -14 -3 -6 -6z"/>
<path d="M3165 5570 c-3 -5 -1 -10 4 -10 6 0 11 5 11 10 0 6 -2 10 -4 10 -3 0
-8 -4 -11 -10z"/>
<path d="M3070 5550 c0 -5 7 -7 15 -4 8 4 15 8 15 10 0 2 -7 4 -15 4 -8 0 -15
-4 -15 -10z"/>
<path d="M3870 5806 c0 -2 8 -10 18 -17 15 -13 16 -12 3 4 -13 16 -21 21 -21
13z"/>
<path d="M3920 5741 c5 -11 15 -23 21 -27 6 -3 3 5 -6 20 -20 30 -30 35 -15 7z"/>
<path d="M3880 5670 c-8 -5 -10 -10 -5 -10 6 0 17 5 25 10 8 5 11 10 5 10 -5
0 -17 -5 -25 -10z"/>
<path d="M3835 5640 c-3 -6 1 -7 9 -4 18 7 21 14 7 14 -6 0 -13 -4 -16 -10z"/>
<path d="M3754 5594 c-18 -14 -18 -14 6 -3 31 14 36 19 24 19 -6 0 -19 -7 -30
-16z"/>
<path d="M3710 5569 c0 -5 5 -7 10 -4 6 3 10 8 10 11 0 2 -4 4 -10 4 -5 0 -10
-5 -10 -11z"/>
<path d="M4028 5633 c7 -3 16 -2 19 1 4 3 -2 6 -13 5 -11 0 -14 -3 -6 -6z"/>
<path d="M3980 5620 c-8 -5 -10 -10 -5 -10 6 0 17 5 25 10 8 5 11 10 5 10 -5
0 -17 -5 -25 -10z"/>
<path d="M3873 5518 c-13 -6 -23 -15 -23 -20 0 -5 11 -1 25 8 37 24 35 30 -2
12z"/>
<path d="M3765 5458 c-38 -22 -135 -74 -215 -115 -129 -66 -174 -93 -159 -93
15 0 413 211 417 222 2 4 10 8 18 8 8 0 14 5 14 10 0 13 6 15 -75 -32z"/>
<path d="M3570 5260 c-12 -8 -11 -10 8 -10 12 0 22 5 22 10 0 13 -11 13 -30 0z"/>
<path d="M3485 5240 c-4 -6 6 -7 27 -3 44 8 48 13 10 13 -17 0 -34 -4 -37 -10z"/>
<path d="M3430 5230 c-12 -8 -11 -10 8 -10 12 0 22 5 22 10 0 13 -11 13 -30 0z"/>
<path d="M3365 5210 c-18 -8 -17 -9 8 -9 15 -1 27 4 27 9 0 12 -8 12 -35 0z"/>
<path d="M3310 5190 c-13 -8 -13 -10 2 -10 9 0 20 5 23 10 8 13 -5 13 -25 0z"/>
<path d="M3545 5190 c-3 -5 -1 -10 4 -10 6 0 11 5 11 10 0 6 -2 10 -4 10 -3 0
-8 -4 -11 -10z"/>
<path d="M3260 5170 c0 -5 7 -7 15 -4 8 4 15 8 15 10 0 2 -7 4 -15 4 -8 0 -15
-4 -15 -10z"/>
<path d="M3286 5141 c-4 -5 3 -7 14 -4 23 6 26 13 6 13 -8 0 -17 -4 -20 -9z"/>
<path d="M4220 5319 c0 -6 -9 -9 -20 -6 -11 3 -20 1 -20 -4 0 -5 16 -9 35 -7
26 2 42 -5 64 -26 l30 -28 -17 35 c-9 19 -19 33 -21 31 -1 -1 -14 1 -27 6 -16
7 -24 6 -24 -1z"/>
<path d="M4100 5309 c0 -5 9 -9 20 -9 11 0 20 2 20 4 0 2 -9 6 -20 9 -11 3
-20 1 -20 -4z"/>
<path d="M3963 5303 c26 -2 67 -2 90 0 23 2 2 3 -48 3 -49 0 -68 -1 -42 -3z"/>
<path d="M4268 5193 c7 -3 16 -2 19 1 4 3 -2 6 -13 5 -11 0 -14 -3 -6 -6z"/>
<path d="M4108 5153 c7 -3 16 -2 19 1 4 3 -2 6 -13 5 -11 0 -14 -3 -6 -6z"/>
<path d="M4040 5140 c-8 -5 -10 -10 -5 -10 6 0 17 5 25 10 8 5 11 10 5 10 -5
0 -17 -5 -25 -10z"/>
<path d="M3810 5060 c-9 -6 -10 -10 -3 -10 6 0 15 5 18 10 8 12 4 12 -15 0z"/>
<path d="M4076 4995 c-3 -9 -6 -22 -5 -28 0 -7 5 -1 10 12 5 13 8 26 5 28 -2
2 -6 -3 -10 -12z"/>
<path d="M4139 4995 c18 -8 36 -15 40 -15 13 1 -45 29 -59 29 -8 0 0 -6 19
-14z"/>
<path d="M3040 5216 c0 -9 5 -16 10 -16 6 0 10 4 10 9 0 6 -4 13 -10 16 -5 3
-10 -1 -10 -9z"/>
<path d="M2556 5205 c-3 -8 -30 -27 -59 -43 -30 -15 -87 -44 -126 -64 -87 -46
-115 -50 -47 -7 26 17 45 33 42 36 -3 3 -28 -9 -56 -27 -56 -36 -68 -65 -22
-54 27 7 111 46 239 112 23 12 48 22 55 22 8 0 14 9 15 20 2 24 -32 28 -41 5z"/>
<path d="M2528 5203 c7 -3 16 -2 19 1 4 3 -2 6 -13 5 -11 0 -14 -3 -6 -6z"/>
<path d="M2806 5195 c5 -13 9 -13 23 -3 9 7 18 14 20 15 2 2 -8 3 -22 3 -20 0
-25 -4 -21 -15z"/>
<path d="M2640 5166 c19 -8 58 -14 85 -14 l50 1 -45 7 c-25 4 -63 10 -85 13
l-40 7 35 -14z"/>
<path d="M2451 5091 c-6 -10 -81 -81 -168 -157 -87 -76 -182 -162 -210 -192
-43 -42 -53 -49 -53 -32 0 39 27 86 70 123 24 20 38 37 31 37 -13 0 -84 -50
-90 -63 -1 -4 -20 -24 -42 -44 -21 -20 -36 -39 -34 -43 3 -5 -11 -32 -30 -61
-51 -78 -47 -107 7 -46 16 17 27 25 25 17 -5 -18 20 -70 33 -70 6 0 10 14 10
31 0 17 12 48 29 72 31 46 162 177 226 227 66 52 225 201 225 211 0 16 -19 10
-29 -10z m-448 -388 c-3 -27 -12 -59 -19 -73 -12 -22 -13 -23 -15 -5 -1 11 0
27 1 34 2 13 -1 13 -16 0 -17 -13 -17 -12 0 16 24 37 50 74 53 75 2 0 0 -21
-4 -47z"/>
<path d="M2620 5000 c0 -5 5 -10 11 -10 5 0 7 5 4 10 -3 6 -8 10 -11 10 -2 0
-4 -4 -4 -10z"/>
<path d="M2078 4893 c-107 -108 -158 -164 -158 -175 0 -4 58 52 129 125 71 73
133 135 137 140 4 4 3 7 -2 7 -6 0 -53 -44 -106 -97z"/>
<path d="M3095 4970 c3 -5 8 -10 11 -10 2 0 4 5 4 10 0 6 -5 10 -11 10 -5 0
-7 -4 -4 -10z"/>
<path d="M2995 4940 c-3 -10 -20 -31 -36 -45 -21 -17 -26 -25 -14 -25 21 0 65
48 65 71 0 25 -7 24 -15 -1z"/>
<path d="M3057 4911 c-56 -31 -161 -110 -154 -117 7 -7 102 46 100 56 -1 4 3
7 10 7 18 -2 117 37 117 45 0 12 -24 9 -40 -4 -8 -7 -6 -3 4 10 28 32 18 33
-37 3z"/>
<path d="M2530 4900 c-9 -6 -10 -10 -3 -10 6 0 15 5 18 10 8 12 4 12 -15 0z"/>
<path d="M2818 4893 c-10 -2 -18 -9 -18 -14 0 -6 9 -5 21 2 12 6 34 8 50 5 15
-3 31 -1 34 4 6 10 -54 12 -87 3z"/>
<path d="M2763 4884 c-7 -3 -9 -12 -7 -19 6 -14 -52 -45 -85 -45 -9 0 -22 -10
-30 -21 -10 -18 -15 -19 -22 -8 -7 11 -9 11 -9 -3 0 -10 -7 -18 -15 -18 -20 0
-128 -83 -149 -115 -9 -14 -23 -25 -31 -25 -8 0 -15 -7 -15 -16 0 -20 -31 -74
-43 -74 -4 0 -3 9 3 19 5 11 10 23 10 28 -1 4 -8 -4 -16 -20 -8 -15 -12 -32
-9 -37 3 -5 -4 -29 -17 -52 -12 -24 -21 -46 -21 -49 1 -3 -16 -23 -38 -44 -21
-22 -39 -43 -39 -47 0 -18 21 -5 69 42 28 28 59 50 68 50 12 0 7 -9 -17 -30
-19 -16 -30 -29 -24 -30 5 0 15 5 22 12 6 6 14 9 17 6 4 -3 -6 -18 -21 -32
-16 -14 -25 -28 -22 -31 3 -4 18 6 32 20 28 28 35 21 11 -11 -19 -25 -19 -34
1 -34 8 0 12 4 9 10 -7 12 155 119 286 189 56 30 96 57 96 66 0 19 5 19 -58
-9 -55 -25 -152 -46 -134 -29 32 29 86 63 100 63 9 0 13 5 10 10 -3 6 -1 10 5
10 6 0 26 11 43 24 35 26 168 92 179 88 4 -1 5 5 2 13 -7 18 74 70 143 91 43
12 92 44 68 44 -16 0 -141 -55 -197 -86 -39 -22 -65 -31 -75 -26 -11 7 -6 16
26 45 49 44 52 60 11 44 -25 -9 -33 -9 -39 2 -5 7 -17 11 -27 7 -11 -3 -26 -1
-34 4 -13 9 -13 11 0 20 15 10 5 12 -17 4z m32 -74 c3 -5 0 -10 -7 -10 -7 0
-26 -7 -41 -15 -26 -13 -28 -13 -25 2 2 10 14 20 28 24 36 10 38 10 45 -1z
m10 -46 c-44 -40 -105 -81 -105 -71 0 2 5 18 11 36 12 35 47 60 58 42 5 -7 19
-3 41 14 52 39 50 30 -5 -21z m-146 13 c-2 -1 -13 -9 -24 -17 -19 -14 -19 -14
-6 3 7 9 18 17 24 17 6 0 8 -1 6 -3z m-49 -34 c0 -5 -13 -17 -28 -27 l-27 -19
24 26 c26 28 31 32 31 20z m-77 -46 c-15 -19 -30 -32 -32 -30 -5 3 49 63 57
63 2 0 -9 -15 -25 -33z m124 -35 c-19 -20 -23 -37 -7 -27 5 3 8 0 5 -7 -3 -7
-16 -20 -29 -28 -58 -37 -112 -74 -124 -87 -7 -7 -24 -15 -38 -18 -13 -3 -35
-7 -49 -10 -14 -3 -25 -3 -25 1 0 3 17 28 38 54 20 26 44 57 52 69 17 25 88
82 75 60 -7 -11 -5 -11 11 1 10 8 22 19 26 24 3 5 15 10 26 11 14 1 18 -4 15
-16 -3 -9 0 -20 6 -23 7 -5 11 5 12 26 0 31 1 32 11 10 9 -17 8 -26 -5 -40z
m-176 -5 c-10 -9 -11 -8 -5 6 3 10 9 15 12 12 3 -3 0 -11 -7 -18z m-114 -169
c-3 -8 -6 -5 -6 6 -1 11 2 17 5 13 3 -3 4 -12 1 -19z m215 8 c15 -11 6 -20
-87 -78 -80 -51 -100 -60 -88 -41 9 13 53 43 97 66 56 28 75 42 62 45 -10 2
-21 0 -25 -5 -3 -4 -23 -16 -44 -26 l-38 -17 18 24 c31 43 74 56 105 32z
m-166 -41 c-11 -8 -22 -12 -25 -9 -6 6 19 24 34 24 6 -1 1 -7 -9 -15z"/>
<path d="M2610 4850 c-8 -5 -12 -11 -9 -14 2 -3 11 -1 19 4 8 5 12 11 9 14 -2
3 -11 1 -19 -4z"/>
<path d="M2581 4807 c-8 -10 -7 -14 4 -14 8 0 16 6 19 14 3 7 2 13 -3 13 -5 0
-14 -6 -20 -13z"/>
<path d="M1896 4728 c-8 -12 -13 -26 -9 -31 3 -5 2 -12 -3 -16 -18 -12 -49
-66 -51 -89 -3 -39 -109 -228 -186 -333 -129 -177 -138 -192 -126 -199 12 -8
-4 -30 -83 -112 -26 -26 -42 -48 -36 -48 30 0 205 211 192 232 -4 6 -3 8 3 5
6 -4 24 9 39 29 16 19 65 79 109 132 109 132 159 202 150 210 -3 4 -11 -1 -16
-11 -6 -9 -14 -15 -20 -12 -5 4 -9 -2 -9 -11 0 -18 -67 -111 -121 -169 -16
-16 -40 -45 -55 -63 -52 -65 -33 -23 41 88 41 63 75 107 75 100 0 -23 21 4 24
31 1 13 12 56 24 96 19 59 30 79 67 111 42 37 61 63 33 45 -33 -20 -53 -2 -26
25 7 7 9 12 6 12 -4 0 -14 -10 -22 -22z m-338 -638 c-12 -17 -24 -28 -26 -25
-3 3 4 16 16 28 12 13 19 27 15 32 -5 4 -2 5 4 1 10 -5 7 -15 -9 -36z"/>
<path d="M3005 4740 c3 -5 16 -10 28 -9 21 0 21 1 2 9 -28 12 -37 12 -30 0z"/>
<path d="M3050 4678 c0 -19 2 -20 10 -8 13 19 13 30 0 30 -5 0 -10 -10 -10
-22z"/>
<path d="M2381 4642 c-17 -31 -13 -40 5 -14 9 13 14 26 11 29 -3 2 -10 -4 -16
-15z"/>
<path d="M2311 4593 c-7 -8 -11 -16 -8 -19 2 -2 10 2 17 11 17 20 9 27 -9 8z"/>
<path d="M2793 4592 c-13 -2 -23 -10 -23 -18 0 -17 8 -17 39 0 26 15 18 24
-16 18z"/>
<path d="M2843 4548 c-13 -6 -23 -15 -23 -19 0 -4 14 -1 30 7 29 15 39 25 23
23 -5 0 -18 -5 -30 -11z"/>
<path d="M2189 4515 c-1 -3 -2 -11 -3 -17 0 -7 -8 -13 -16 -13 -20 -1 -40 -14
-40 -27 0 -7 6 -6 15 2 22 18 18 3 -6 -23 -19 -20 -20 -20 -13 -2 7 18 6 18
-9 6 -13 -10 -14 -18 -6 -35 9 -19 9 -19 -4 -4 -10 13 -17 14 -25 6 -8 -8 -7
-15 6 -25 15 -13 15 -13 -3 -4 -17 8 -27 3 -60 -27 -22 -20 -31 -27 -21 -14
11 12 16 25 12 29 -4 4 -11 1 -16 -7 -8 -12 -10 -9 -11 10 0 24 -1 24 -12 -5
-7 -16 -20 -44 -29 -61 -21 -39 -180 -189 -270 -257 -38 -27 -68 -54 -68 -59
0 -6 23 6 50 26 28 20 56 36 63 36 7 0 20 9 30 20 10 12 23 17 34 14 13 -4 14
-3 5 3 -10 8 -9 13 4 24 11 9 15 9 10 2 -5 -9 -2 -11 8 -7 9 3 16 15 16 26 0
11 5 18 12 16 19 -7 52 28 42 44 -6 11 -5 11 8 0 13 -10 21 -6 51 28 19 22 42
40 51 40 9 0 33 16 54 35 22 19 41 32 44 29 3 -3 2 -22 -3 -42 -7 -34 -6 -35
7 -18 8 11 14 26 14 33 0 24 2 28 31 64 16 20 26 39 23 42 -3 3 6 28 20 56 14
28 26 53 26 56 0 6 -20 7 -21 0z m-119 -148 c0 -2 -19 -21 -42 -42 l-43 -40
40 43 c36 39 45 47 45 39z m-110 -107 c0 -5 -5 -10 -11 -10 -5 0 -7 5 -4 10 3
6 8 10 11 10 2 0 4 -4 4 -10z m-45 -50 c3 -5 1 -10 -4 -10 -6 0 -11 5 -11 10
0 6 2 10 4 10 3 0 8 -4 11 -10z"/>
<path d="M2637 4464 c-22 -14 -36 -28 -33 -31 3 -3 12 0 21 7 13 11 14 10 9
-4 -3 -9 -11 -16 -17 -16 -6 0 -7 -3 -4 -6 8 -9 32 11 58 48 25 34 16 35 -34
2z"/>
<path d="M2061 4424 c-24 -25 -40 -48 -37 -51 3 -4 7 -4 9 -2 1 2 20 23 41 46
22 24 37 45 34 48 -2 3 -24 -15 -47 -41z"/>
<path d="M2285 4350 c-10 -11 -14 -20 -9 -20 12 1 44 25 44 34 0 12 -17 6 -35
-14z"/>
<path d="M2706 4305 c-9 -26 -7 -32 5 -12 6 10 9 21 6 23 -2 3 -7 -2 -11 -11z"/>
<path d="M1755 4059 c-11 -17 1 -21 15 -4 8 9 8 15 2 15 -6 0 -14 -5 -17 -11z"/>
<path d="M2310 4059 c0 -5 5 -7 10 -4 6 3 10 8 10 11 0 2 -4 4 -10 4 -5 0 -10
-5 -10 -11z"/>
<path d="M1830 3947 c-19 -17 -60 -53 -90 -79 -30 -26 -52 -48 -49 -48 3 0 19
11 35 25 16 14 55 45 86 68 32 23 58 48 58 55 0 16 0 16 -40 -21z"/>
<path d="M2498 3934 c-9 -9 -40 -19 -68 -22 -36 -3 -48 -8 -38 -14 8 -6 -2 -7
-28 -3 -27 4 -44 2 -49 -5 -4 -7 2 -9 22 -5 36 7 14 -4 -72 -35 -56 -21 -184
-79 -140 -64 11 4 81 27 155 53 74 25 137 48 140 52 3 3 21 9 40 13 20 3 43
15 53 26 20 24 8 27 -15 4z"/>
<path d="M1497 3893 c-18 -18 -26 -22 -21 -10 8 23 -9 22 -31 -3 -10 -12 -25
-18 -33 -15 -8 3 -29 -6 -48 -20 -18 -14 -46 -25 -63 -25 -17 0 -31 -4 -31
-10 0 -13 -6 -12 123 -14 85 -2 107 1 103 11 -3 7 1 13 9 13 24 0 95 32 95 42
0 10 -36 7 -90 -8 -24 -7 -23 -6 8 23 17 17 32 34 32 37 0 15 -28 4 -53 -21z"/>
<path d="M1465 3730 c-37 -23 -67 -24 -124 -4 -24 8 -45 13 -48 11 -4 -4 -9
-25 -22 -88 -4 -19 -11 -41 -15 -47 -17 -28 16 -9 59 34 52 51 76 53 26 2 -17
-17 -31 -35 -31 -40 0 -4 -8 -8 -17 -8 -13 0 -14 -3 -5 -12 9 -9 16 -7 30 12
36 50 85 91 133 111 27 12 49 28 49 35 0 17 2 17 -35 -6z m-173 -92 c-8 -8 -9
-4 -5 13 4 13 8 18 11 10 2 -7 -1 -18 -6 -23z"/>
<path d="M1200 3700 c0 -13 30 -13 50 0 11 7 7 10 -17 10 -18 0 -33 -4 -33
-10z"/>
<path d="M1600 3639 c0 -5 5 -7 10 -4 6 3 10 8 10 11 0 2 -4 4 -10 4 -5 0 -10
-5 -10 -11z"/>
<path d="M1053 3545 c-3 -9 -3 -18 -1 -21 3 -3 8 4 11 16 6 23 -1 27 -10 5z"/>
<path d="M1386 3423 c-6 -14 -5 -15 5 -6 7 7 10 15 7 18 -3 3 -9 -2 -12 -12z"/>
<path d="M1354 3348 l-19 -23 23 19 c21 18 27 26 19 26 -2 0 -12 -10 -23 -22z"/>
<path d="M3265 4950 c-3 -5 1 -10 10 -10 9 0 13 5 10 10 -3 6 -8 10 -10 10 -2
0 -7 -4 -10 -10z"/>
<path d="M3230 4929 c0 -5 5 -7 10 -4 6 3 10 8 10 11 0 2 -4 4 -10 4 -5 0 -10
-5 -10 -11z"/>
<path d="M3477 4759 c7 -7 15 -10 18 -7 3 3 -2 9 -12 12 -14 6 -15 5 -6 -5z"/>
<path d="M3615 4720 c27 -12 35 -12 35 0 0 6 -12 10 -27 9 -25 0 -26 -1 -8 -9z"/>
<path d="M3630 4649 c0 -5 5 -7 10 -4 6 3 10 8 10 11 0 2 -4 4 -10 4 -5 0 -10
-5 -10 -11z"/>
<path d="M3660 4642 c0 -10 -6 -24 -12 -32 -11 -12 -10 -12 3 -2 19 14 32 52
18 52 -5 0 -9 -8 -9 -18z"/>
<path d="M3830 4588 c0 -8 7 -21 15 -28 19 -16 19 -1 0 24 -12 16 -15 17 -15
4z"/>
<path d="M3295 4631 c-3 -5 -1 -12 5 -16 5 -3 10 1 10 9 0 18 -6 21 -15 7z"/>
<path d="M4040 4391 c0 -5 5 -13 10 -16 6 -3 10 -2 10 4 0 5 -4 13 -10 16 -5
3 -10 2 -10 -4z"/>
<path d="M4015 4213 c8 -18 18 -33 20 -33 10 0 4 16 -16 40 l-20 25 16 -32z"/>
<path d="M4150 4280 c0 -21 16 -44 23 -33 4 6 0 19 -8 29 -11 15 -14 16 -15 4z"/>
<path d="M3325 4210 c-3 -6 1 -7 9 -4 18 7 21 14 7 14 -6 0 -13 -4 -16 -10z"/>
<path d="M3290 4178 c-12 -22 -12 -22 6 -6 10 10 15 20 12 24 -4 3 -12 -5 -18
-18z"/>
<path d="M2806 4115 c-9 -26 -7 -32 5 -12 6 10 9 21 6 23 -2 3 -7 -2 -11 -11z"/>
<path d="M2727 4021 c-9 -17 -12 -31 -8 -31 11 0 36 49 29 56 -3 3 -13 -9 -21
-25z"/>
<path d="M3425 4260 c-3 -5 1 -10 10 -10 9 0 13 5 10 10 -3 6 -8 10 -10 10 -2
0 -7 -4 -10 -10z"/>
<path d="M3482 3515 c0 -16 2 -22 5 -12 2 9 2 23 0 30 -3 6 -5 -1 -5 -18z"/>
<path d="M3466 3454 c-4 -14 -5 -28 -3 -31 3 -2 8 8 11 23 4 14 5 28 3 31 -3
2 -8 -8 -11 -23z"/>
<path d="M3281 3454 c0 -11 3 -14 6 -6 3 7 2 16 -1 19 -3 4 -6 -2 -5 -13z"/>
<path d="M3055 3083 c11 -2 67 -16 124 -29 98 -23 134 -25 101 -4 -8 6 -26 10
-40 10 -14 0 -50 7 -80 15 -30 8 -71 14 -90 14 -20 -1 -27 -3 -15 -6z"/>
<path d="M2820 2970 c0 -5 5 -10 10 -10 6 0 10 5 10 10 0 6 -4 10 -10 10 -5 0
-10 -4 -10 -10z"/>
<path d="M2750 2917 c-30 -23 -67 -50 -82 -60 -16 -9 -27 -21 -27 -25 3 -19
-2 -26 -10 -13 -6 9 -11 10 -15 2 -4 -6 -2 -11 4 -11 6 0 8 -5 4 -11 -3 -6 5
-3 20 6 14 9 23 21 20 26 -3 5 2 6 11 3 11 -5 14 -2 9 10 -5 12 -1 16 17 14
13 -2 24 2 24 8 0 17 34 46 45 39 5 -3 10 -1 10 5 0 6 12 15 26 20 14 6 22 14
19 20 -10 16 -16 13 -75 -33z"/>
<path d="M2820 2859 c0 -5 12 -12 28 -15 15 -4 50 -17 77 -29 106 -48 206 -71
190 -45 -3 6 -16 10 -28 10 -24 0 -124 33 -167 55 -38 19 -100 35 -100 24z"/>
<path d="M2948 3873 c6 -2 18 -2 25 0 6 3 1 5 -13 5 -14 0 -19 -2 -12 -5z"/>
<path d="M4156 3585 c-9 -26 -7 -32 5 -12 6 10 9 21 6 23 -2 3 -7 -2 -11 -11z"/>
<path d="M4177 3544 c-4 -4 -7 -14 -7 -23 0 -11 3 -12 11 -4 6 6 10 16 7 23
-2 6 -7 8 -11 4z"/>
<path d="M1163 3373 c9 -2 17 -9 17 -14 0 -5 5 -9 11 -9 8 0 8 5 -1 15 -7 8
-20 14 -29 14 -13 -1 -13 -2 2 -6z"/>
<path d="M4071 3074 c0 -11 3 -14 6 -6 3 7 2 16 -1 19 -3 4 -6 -2 -5 -13z"/>
<path d="M2422 1130 c0 -14 2 -19 5 -12 2 6 2 18 0 25 -3 6 -5 1 -5 -13z"/>
<path d="M502 955 c0 -16 2 -22 5 -12 2 9 2 23 0 30 -3 6 -5 -1 -5 -18z"/>
<path d="M491 904 c0 -11 3 -14 6 -6 3 7 2 16 -1 19 -3 4 -6 -2 -5 -13z"/>
<path d="M482 795 c0 -16 2 -22 5 -12 2 9 2 23 0 30 -3 6 -5 -1 -5 -18z"/>
<path d="M2230 1020 c-6 -11 -8 -20 -6 -20 3 0 10 9 16 20 6 11 8 20 6 20 -3
0 -10 -9 -16 -20z"/>
<path d="M2281 865 c-14 -14 -23 -27 -20 -29 5 -6 59 38 59 48 0 12 -15 5 -39
-19z"/>
<path d="M2456 6682 c312 -296 392 -372 425 -407 21 -22 70 -73 108 -114 39
-41 71 -79 71 -83 0 -5 16 -24 35 -43 19 -19 32 -35 29 -35 -2 0 14 -25 37
-55 23 -31 44 -53 47 -51 6 7 -79 132 -136 199 -46 55 -460 475 -465 471 -1
-1 -13 13 -27 32 -14 18 -31 34 -39 34 -8 0 -11 3 -8 7 4 3 -7 15 -24 25 -16
10 -27 23 -24 28 3 5 0 7 -7 5 -8 -3 -25 6 -38 20 -13 14 -28 25 -34 25 -6 0
16 -26 50 -58z"/>
<path d="M2960 6737 c0 -2 37 -35 83 -73 45 -38 100 -85 122 -104 35 -31 359
-345 422 -409 12 -13 23 -19 23 -14 0 8 -241 253 -376 381 -13 13 -21 28 -18
34 4 6 2 8 -4 4 -10 -6 -40 16 -112 81 -67 60 -140 113 -140 100z"/>
<path d="M3150 6621 c0 -5 5 -13 10 -16 6 -3 10 -2 10 4 0 5 -4 13 -10 16 -5
3 -10 2 -10 -4z"/>
<path d="M2000 6596 c0 -2 7 -9 15 -16 13 -11 14 -10 9 4 -5 14 -24 23 -24 12z"/>
<path d="M3250 6570 c0 -5 5 -10 11 -10 5 0 7 5 4 10 -3 6 -8 10 -11 10 -2 0
-4 -4 -4 -10z"/>
<path d="M3314 6503 c6 -11 37 -47 96 -113 31 -34 32 -34 11 -4 -22 34 -116
137 -107 117z"/>
<path d="M2140 6392 c6 -13 14 -21 18 -18 3 4 -2 14 -12 24 -18 16 -18 16 -6
-6z"/>
<path d="M4205 6343 c-48 -17 -59 -26 -23 -19 28 5 68 23 68 31 0 3 -1 4 -2 4
-2 -1 -21 -8 -43 -16z"/>
<path d="M3450 6336 c0 -2 8 -10 18 -17 15 -13 16 -12 3 4 -13 16 -21 21 -21
13z"/>
<path d="M2180 6322 c0 -5 7 -15 15 -22 8 -7 15 -9 15 -6 0 4 -7 14 -15 22 -8
9 -15 11 -15 6z"/>
<path d="M4020 6275 c-14 -8 -20 -14 -14 -15 5 0 19 7 30 15 24 18 16 19 -16
0z"/>
<path d="M3500 6276 c0 -2 8 -10 18 -17 15 -13 16 -12 3 4 -13 16 -21 21 -21
13z"/>
<path d="M2250 6201 c0 -6 4 -13 10 -16 6 -3 7 1 4 9 -7 18 -14 21 -14 7z"/>
<path d="M881 6170 c0 -8 6 -24 14 -34 19 -25 19 -9 0 24 -8 14 -14 19 -14 10z"/>
<path d="M2270 6164 c0 -6 7 -19 15 -30 8 -10 14 -14 14 -9 0 6 -6 19 -14 29
-8 11 -15 15 -15 10z"/>
<path d="M2300 6100 c0 -5 5 -10 11 -10 5 0 7 5 4 10 -3 6 -8 10 -11 10 -2 0
-4 -4 -4 -10z"/>
<path d="M2321 6070 c0 -8 4 -24 9 -35 5 -13 9 -14 9 -5 0 8 -4 24 -9 35 -5
13 -9 14 -9 5z"/>
<path d="M2346 5997 c3 -10 9 -15 12 -12 3 3 0 11 -7 18 -10 9 -11 8 -5 -6z"/>
<path d="M820 5989 c0 -5 5 -7 10 -4 6 3 10 8 10 11 0 2 -4 4 -10 4 -5 0 -10
-5 -10 -11z"/>
<path d="M4971 5983 c0 -4 4 -17 9 -28 8 -19 9 -19 9 2 1 12 -3 25 -9 28 -5 3
-10 3 -9 -2z"/>
<path d="M2370 5951 c0 -6 4 -13 10 -16 6 -3 7 1 4 9 -7 18 -14 21 -14 7z"/>
<path d="M2391 5894 c0 -11 3 -14 6 -6 3 7 2 16 -1 19 -3 4 -6 -2 -5 -13z"/>
<path d="M4680 5868 c-19 -6 -66 -19 -105 -31 -109 -31 -215 -69 -221 -78 -8
-14 13 -10 58 11 63 28 235 80 291 87 32 4 44 9 35 14 -15 10 -12 10 -58 -3z"/>
<path d="M2400 5865 c0 -5 5 -17 10 -25 5 -8 10 -10 10 -5 0 6 -5 17 -10 25
-5 8 -10 11 -10 5z"/>
<path d="M710 5819 c-7 -11 -10 -23 -7 -25 2 -2 9 7 15 21 14 30 7 33 -8 4z"/>
<path d="M2426 5797 c3 -10 9 -15 12 -12 3 3 0 11 -7 18 -10 9 -11 8 -5 -6z"/>
<path d="M4510 5660 c-9 -6 -10 -10 -3 -10 6 0 15 5 18 10 8 12 4 12 -15 0z"/>
<path d="M687 5653 c-4 -3 -7 -11 -7 -17 0 -6 5 -5 12 2 6 6 9 14 7 17 -3 3
-9 2 -12 -2z"/>
<path d="M2978 5585 c-52 -59 -48 -69 7 -15 42 41 55 61 38 59 -5 0 -25 -20
-45 -44z"/>
<path d="M851 5607 c2 -1 13 -9 24 -17 19 -14 19 -14 6 3 -7 9 -18 17 -24 17
-6 0 -8 -1 -6 -3z"/>
<path d="M912 5534 l21 -35 -20 -27 c-11 -15 -40 -35 -64 -45 -41 -17 -42 -17
-10 -12 44 7 101 50 101 76 0 23 -30 79 -42 79 -4 0 2 -16 14 -36z"/>
<path d="M1148 5490 c4 -14 7 -42 6 -62 0 -22 3 -32 8 -25 12 18 9 48 -7 82
-11 23 -13 24 -7 5z"/>
<path d="M610 5490 c0 -5 5 -10 10 -10 6 0 10 5 10 10 0 6 -4 10 -10 10 -5 0
-10 -4 -10 -10z"/>
<path d="M2828 5483 c7 -3 16 -2 19 1 4 3 -2 6 -13 5 -11 0 -14 -3 -6 -6z"/>
<path d="M2770 5465 c-14 -8 -20 -14 -15 -14 6 0 21 6 35 14 14 8 21 14 15 14
-5 0 -21 -6 -35 -14z"/>
<path d="M4298 5453 c6 -2 18 -2 25 0 6 3 1 5 -13 5 -14 0 -19 -2 -12 -5z"/>
<path d="M4358 5453 c7 -3 16 -2 19 1 4 3 -2 6 -13 5 -11 0 -14 -3 -6 -6z"/>
<path d="M4408 5443 c7 -3 16 -2 19 1 4 3 -2 6 -13 5 -11 0 -14 -3 -6 -6z"/>
<path d="M4481 5436 c2 -2 29 -6 59 -9 36 -4 48 -3 35 3 -19 8 -103 14 -94 6z"/>
<path d="M4625 5420 c3 -5 17 -10 31 -10 32 0 31 -16 -3 -28 -16 -6 -21 -11
-13 -11 8 0 25 5 38 13 19 10 21 15 10 23 -19 15 -71 26 -63 13z"/>
<path d="M4760 5419 c0 -5 5 -7 10 -4 6 3 10 8 10 11 0 2 -4 4 -10 4 -5 0 -10
-5 -10 -11z"/>
<path d="M1106 5354 c-11 -8 -16 -14 -10 -14 13 0 39 18 34 24 -3 2 -14 -2
-24 -10z"/>
<path d="M2715 5322 c-5 -4 -11 -14 -13 -22 -3 -11 3 -9 20 5 13 11 25 21 27
22 2 2 -2 3 -10 3 -8 0 -18 -4 -24 -8z"/>
<path d="M4568 5293 c7 -3 16 -2 19 1 4 3 -2 6 -13 5 -11 0 -14 -3 -6 -6z"/>
<path d="M935 5280 c-3 -5 -2 -10 4 -10 5 0 13 5 16 10 3 6 2 10 -4 10 -5 0
-13 -4 -16 -10z"/>
<path d="M495 5250 c-3 -5 -1 -10 4 -10 6 0 11 5 11 10 0 6 -2 10 -4 10 -3 0
-8 -4 -11 -10z"/>
<path d="M2191 5158 c-14 -23 -14 -23 8 -4 22 20 25 26 13 26 -4 0 -13 -10
-21 -22z"/>
<path d="M3825 4910 c11 -5 29 -9 40 -9 17 -1 17 1 5 9 -8 5 -26 9 -40 9 -23
0 -23 -1 -5 -9z"/>
<path d="M3905 4900 c3 -5 14 -10 23 -10 15 0 15 2 2 10 -20 13 -33 13 -25 0z"/>
<path d="M3980 4880 c34 -11 60 -11 35 0 -11 5 -29 8 -40 8 -16 0 -15 -2 5 -8z"/>
<path d="M4061 4871 c-9 -6 -4 -12 20 -20 18 -6 34 -9 37 -6 3 3 11 0 19 -6
13 -11 83 -23 83 -14 0 6 -81 28 -100 28 -8 0 -22 6 -30 13 -9 8 -21 10 -29 5z"/>
<path d="M880 4826 c0 -2 14 -14 30 -26 17 -12 30 -19 30 -16 0 2 -13 14 -30
26 -16 12 -30 19 -30 16z"/>
<path d="M4515 4800 c-3 -5 1 -10 10 -10 9 0 13 5 10 10 -3 6 -8 10 -10 10 -2
0 -7 -4 -10 -10z"/>
<path d="M4565 4790 c-3 -5 -23 -10 -43 -11 l-37 -1 28 -10 c29 -10 77 4 77
24 0 11 -18 10 -25 -2z"/>
<path d="M841 4714 c0 -11 3 -14 6 -6 3 7 2 16 -1 19 -3 4 -6 -2 -5 -13z"/>
<path d="M4507 4719 c7 -7 15 -10 18 -7 3 3 -2 9 -12 12 -14 6 -15 5 -6 -5z"/>
<path d="M1001 4704 c0 -11 3 -14 6 -6 3 7 2 16 -1 19 -3 4 -6 -2 -5 -13z"/>
<path d="M4230 4710 c0 -6 17 -10 37 -10 43 0 41 5 -4 13 -19 4 -33 2 -33 -3z"/>
<path d="M4665 4691 c11 -23 12 -31 2 -34 -7 -4 -6 -6 4 -6 9 -1 19 -8 23 -16
3 -8 12 -12 19 -9 11 4 7 13 -14 36 -16 16 -29 36 -29 44 0 8 -5 14 -10 14 -6
0 -4 -12 5 -29z"/>
<path d="M4548 4703 c7 -3 16 -2 19 1 4 3 -2 6 -13 5 -11 0 -14 -3 -6 -6z"/>
<path d="M4330 4690 c8 -5 22 -10 30 -10 13 0 13 1 0 10 -8 5 -22 10 -30 10
-13 0 -13 -1 0 -10z"/>
<path d="M4610 4676 c0 -2 9 -6 20 -9 11 -3 18 -1 14 4 -5 9 -34 13 -34 5z"/>
<path d="M4520 4640 c0 -5 5 -10 11 -10 5 0 7 5 4 10 -3 6 -8 10 -11 10 -2 0
-4 -4 -4 -10z"/>
<path d="M4747 4619 c7 -7 15 -10 18 -7 3 3 -2 9 -12 12 -14 6 -15 5 -6 -5z"/>
<path d="M4375 4600 c-3 -5 1 -10 9 -10 9 0 16 5 16 10 0 6 -4 10 -9 10 -6 0
-13 -4 -16 -10z"/>
<path d="M4713 4592 c3 -23 41 -72 56 -72 6 0 11 -5 11 -11 0 -5 -4 -7 -10 -4
-5 3 -10 1 -10 -5 0 -6 7 -10 16 -8 8 2 33 -17 55 -42 22 -25 36 -36 30 -25
-6 11 -29 40 -51 65 -23 25 -53 62 -67 83 -29 42 -34 45 -30 19z"/>
<path d="M5460 4600 c0 -5 5 -10 10 -10 6 0 10 5 10 10 0 6 -4 10 -10 10 -5 0
-10 -4 -10 -10z"/>
<path d="M4860 4570 c0 -5 5 -10 11 -10 5 0 7 5 4 10 -3 6 -8 10 -11 10 -2 0
-4 -4 -4 -10z"/>
<path d="M4957 4519 c7 -7 15 -10 18 -7 3 3 -2 9 -12 12 -14 6 -15 5 -6 -5z"/>
<path d="M4780 4465 c0 -8 4 -15 10 -15 5 0 7 7 4 15 -4 8 -8 15 -10 15 -2 0
-4 -7 -4 -15z"/>
<path d="M859 4415 c16 -31 49 -70 55 -65 3 3 -11 23 -30 45 -19 22 -30 31
-25 20z"/>
<path d="M4815 4390 c3 -5 8 -10 11 -10 2 0 4 5 4 10 0 6 -5 10 -11 10 -5 0
-7 -4 -4 -10z"/>
<path d="M4885 4370 c9 -16 18 -30 21 -30 2 0 -2 14 -11 30 -9 17 -18 30 -21
30 -2 0 2 -13 11 -30z"/>
<path d="M4830 4367 c0 -11 39 -87 45 -87 6 0 -25 73 -36 85 -5 5 -9 6 -9 2z"/>
<path d="M1606 4335 c-9 -13 -16 -29 -16 -34 0 -5 -3 -11 -7 -13 -13 -5 -54
-68 -45 -68 11 0 44 46 71 98 24 46 22 56 -3 17z"/>
<path d="M4275 4330 c3 -5 8 -10 11 -10 2 0 4 5 4 10 0 6 -5 10 -11 10 -5 0
-7 -4 -4 -10z"/>
<path d="M686 4274 c4 -19 1 -34 -5 -38 -6 -4 -11 -12 -11 -18 0 -7 6 -6 15 2
17 14 19 48 5 70 -7 11 -8 6 -4 -16z"/>
<path d="M4880 4257 c0 -10 52 -108 55 -105 6 5 -43 108 -50 108 -3 0 -5 -1
-5 -3z"/>
<path d="M4956 4247 c3 -10 9 -15 12 -12 3 3 0 11 -7 18 -10 9 -11 8 -5 -6z"/>
<path d="M1026 4207 c3 -10 9 -15 12 -12 3 3 0 11 -7 18 -10 9 -11 8 -5 -6z"/>
<path d="M630 4201 c0 -5 7 -11 14 -14 10 -4 13 -1 9 9 -6 15 -23 19 -23 5z"/>
<path d="M4941 4135 c0 -5 6 -21 14 -35 8 -14 14 -20 14 -15 0 6 -6 21 -14 35
-8 14 -14 21 -14 15z"/>
<path d="M1060 4120 c0 -6 7 -21 16 -35 14 -21 14 -24 -3 -34 -10 -6 -13 -10
-8 -11 6 0 16 4 24 9 12 8 12 14 1 40 -13 33 -30 50 -30 31z"/>
<path d="M4970 4061 c0 -5 5 -13 10 -16 6 -3 10 -2 10 4 0 5 -4 13 -10 16 -5
3 -10 2 -10 -4z"/>
<path d="M803 4023 c20 -23 23 -48 5 -37 -7 4 -2 -5 11 -19 30 -33 33 -34 21
-1 -15 39 -12 52 13 57 15 4 13 5 -8 4 -17 -1 -37 3 -45 8 -11 6 -10 3 3 -12z"/>
<path d="M3865 4021 c-6 -11 9 -23 19 -14 9 9 7 23 -3 23 -6 0 -12 -4 -16 -9z"/>
<path d="M4990 4021 c0 -5 5 -13 10 -16 6 -3 10 -2 10 4 0 5 -4 13 -10 16 -5
3 -10 2 -10 -4z"/>
<path d="M3977 4013 c-10 -9 -8 -43 2 -43 5 0 9 11 9 25 0 27 -1 28 -11 18z"/>
<path d="M850 3985 c7 -9 15 -13 17 -11 7 7 -7 26 -19 26 -6 0 -6 -6 2 -15z"/>
<path d="M5005 3980 c3 -5 8 -10 11 -10 2 0 4 5 4 10 0 6 -5 10 -11 10 -5 0
-7 -4 -4 -10z"/>
<path d="M871 3947 c-11 -18 -11 -20 0 -9 15 14 33 16 25 3 -3 -5 1 -12 10
-15 33 -13 29 15 -5 33 -13 7 -20 4 -30 -12z"/>
<path d="M5020 3951 c0 -5 5 -13 10 -16 6 -3 10 -2 10 4 0 5 -4 13 -10 16 -5
3 -10 2 -10 -4z"/>
<path d="M5041 3915 c0 -5 6 -21 14 -35 8 -14 14 -20 14 -15 0 6 -6 21 -14 35
-8 14 -14 21 -14 15z"/>
<path d="M3967 3853 c-2 -4 -7 -24 -11 -43 l-6 -35 15 39 c13 35 15 61 2 39z"/>
<path d="M5070 3841 c0 -5 5 -13 10 -16 6 -3 10 -2 10 4 0 5 -4 13 -10 16 -5
3 -10 2 -10 -4z"/>
<path d="M5090 3790 c0 -5 5 -10 11 -10 5 0 7 5 4 10 -3 6 -8 10 -11 10 -2 0
-4 -4 -4 -10z"/>
<path d="M3936 3744 c-4 -14 -5 -28 -3 -31 3 -2 8 8 11 23 4 14 5 28 3 31 -3
2 -8 -8 -11 -23z"/>
<path d="M5110 3755 c0 -8 4 -15 10 -15 5 0 7 7 4 15 -4 8 -8 15 -10 15 -2 0
-4 -7 -4 -15z"/>
<path d="M2560 3740 c8 -5 22 -9 30 -9 10 0 8 3 -5 9 -27 12 -43 12 -25 0z"/>
<path d="M4004 3737 c-2 -7 3 -27 12 -43 l16 -29 -7 30 c-4 17 -8 36 -8 43 0
16 -6 15 -13 -1z"/>
<path d="M2615 3720 c3 -5 16 -10 28 -9 21 0 21 1 2 9 -28 12 -37 12 -30 0z"/>
<path d="M4107 3723 c-4 -3 -7 -13 -7 -22 1 -13 3 -13 11 2 11 19 8 33 -4 20z"/>
<path d="M5130 3711 c0 -6 4 -13 10 -16 6 -3 7 1 4 9 -7 18 -14 21 -14 7z"/>
<path d="M3916 3685 c-9 -26 -7 -32 5 -12 6 10 9 21 6 23 -2 3 -7 -2 -11 -11z"/>
<path d="M3985 3669 c-4 -6 -5 -12 -2 -15 2 -3 7 2 10 11 7 17 1 20 -8 4z"/>
<path d="M5150 3674 c0 -7 9 -31 20 -55 11 -24 20 -39 20 -33 0 7 -9 31 -20
55 -11 24 -20 39 -20 33z"/>
<path d="M5230 3673 c0 -5 18 -67 41 -138 44 -140 98 -325 99 -338 0 -5 -4 -5
-10 -2 -5 3 -10 1 -10 -5 0 -6 7 -13 16 -17 8 -3 13 -12 10 -19 -3 -7 1 -28 8
-46 7 -18 21 -75 31 -126 10 -51 19 -91 20 -90 8 10 13 68 6 64 -5 -3 -9 4 -8
17 0 12 -7 49 -16 82 -8 33 -23 94 -32 135 -20 89 -65 249 -75 270 -10 19 -50
164 -50 180 0 6 -7 18 -15 26 -8 9 -15 12 -15 7z"/>
<path d="M4023 3590 c-8 -32 -8 -38 2 -30 9 8 14 7 17 -1 2 -7 4 6 4 29 -1 53
-9 53 -23 2z"/>
<path d="M2800 3580 c0 -11 -5 -20 -11 -20 -5 0 -7 -5 -3 -11 4 -8 12 -3 20
12 16 29 17 39 4 39 -5 0 -10 -9 -10 -20z"/>
<path d="M5208 3530 c9 -21 18 -35 20 -30 3 9 -25 70 -33 70 -2 0 4 -18 13
-40z"/>
<path d="M4091 3553 c-1 -6 -4 -20 -7 -30 -5 -17 -5 -17 6 0 6 10 9 23 6 30
-3 9 -5 9 -5 0z"/>
<path d="M4042 3523 c1 -10 -1 -24 -5 -30 -5 -8 -4 -13 2 -13 6 0 11 -12 11
-27 0 -32 15 -20 24 20 4 19 3 26 -4 22 -6 -4 -10 4 -10 19 0 14 -5 26 -11 26
-5 0 -9 -8 -7 -17z"/>
<path d="M2770 3519 c0 -5 5 -7 10 -4 6 3 10 8 10 11 0 2 -4 4 -10 4 -5 0 -10
-5 -10 -11z"/>
<path d="M2757 3493 c-4 -3 -7 -11 -7 -17 0 -6 5 -5 12 2 6 6 9 14 7 17 -3 3
-9 2 -12 -2z"/>
<path d="M3992 3470 c0 -14 2 -19 5 -12 2 6 2 18 0 25 -3 6 -5 1 -5 -13z"/>
<path d="M4107 3473 c-4 -3 -7 -11 -7 -17 0 -6 5 -5 12 2 6 6 9 14 7 17 -3 3
-9 2 -12 -2z"/>
<path d="M5240 3465 c0 -5 5 -17 10 -25 5 -8 10 -10 10 -5 0 6 -5 17 -10 25
-5 8 -10 11 -10 5z"/>
<path d="M2727 3433 c-4 -3 -7 -11 -7 -17 0 -6 5 -5 12 2 6 6 9 14 7 17 -3 3
-9 2 -12 -2z"/>
<path d="M4030 3409 c0 -5 5 -7 10 -4 6 3 10 8 10 11 0 2 -4 4 -10 4 -5 0 -10
-5 -10 -11z"/>
<path d="M5266 3397 c3 -10 9 -15 12 -12 3 3 0 11 -7 18 -10 9 -11 8 -5 -6z"/>
<path d="M3989 3373 c-11 -30 -8 -58 6 -58 5 0 9 19 10 43 1 49 -2 52 -16 15z"/>
<path d="M4058 3370 c-3 -16 -1 -30 3 -30 4 0 10 -21 12 -47 2 -28 4 -15 4 30
-1 77 -11 103 -19 47z"/>
<path d="M2690 3365 c-7 -9 -10 -18 -7 -21 3 -3 10 4 17 15 13 25 8 27 -10 6z"/>
<path d="M4324 3355 c4 -24 16 -30 16 -7 0 12 -4 22 -9 22 -5 0 -8 -7 -7 -15z"/>
<path d="M5287 3349 c4 -13 8 -18 11 -10 2 7 -1 18 -6 23 -8 8 -9 4 -5 -13z"/>
<path d="M2660 3319 c0 -5 5 -7 10 -4 6 3 10 8 10 11 0 2 -4 4 -10 4 -5 0 -10
-5 -10 -11z"/>
<path d="M4035 3320 c-3 -5 -1 -10 4 -10 6 0 11 5 11 10 0 6 -2 10 -4 10 -3 0
-8 -4 -11 -10z"/>
<path d="M3965 3292 c-3 -9 -3 -13 1 -9 4 4 13 2 21 -4 10 -9 13 -8 13 4 0 21
-27 29 -35 9z"/>
<path d="M2635 3280 c-3 -5 -1 -10 4 -10 6 0 11 5 11 10 0 6 -2 10 -4 10 -3 0
-8 -4 -11 -10z"/>
<path d="M3942 3223 c-18 -32 -15 -51 4 -25 8 12 14 28 11 35 -2 7 -8 3 -15
-10z"/>
<path d="M4042 3140 c-7 -11 -12 -25 -12 -32 1 -7 8 0 16 15 18 33 14 46 -4
17z"/>
<path d="M4221 3107 c-10 -18 -10 -37 -2 -82 6 -31 8 -61 6 -65 -3 -5 -1 -11
5 -15 12 -8 13 45 1 95 -4 20 -4 46 1 59 11 32 4 37 -11 8z"/>
<path d="M3911 3074 c0 -11 3 -14 6 -6 3 7 2 16 -1 19 -3 4 -6 -2 -5 -13z"/>
<path d="M4006 3075 c-9 -26 -7 -32 5 -12 6 10 9 21 6 23 -2 3 -7 -2 -11 -11z"/>
<path d="M4191 3022 c-17 -31 -13 -40 5 -14 9 13 14 26 11 29 -3 2 -10 -4 -16
-15z"/>
<path d="M3910 2990 c0 -11 2 -20 4 -20 2 0 6 9 9 20 3 11 1 20 -4 20 -5 0 -9
-9 -9 -20z"/>
<path d="M2699 2963 c-13 -16 -12 -17 4 -4 16 13 21 21 13 21 -2 0 -10 -8 -17
-17z"/>
<path d="M2660 2939 c0 -5 5 -7 10 -4 6 3 10 8 10 11 0 2 -4 4 -10 4 -5 0 -10
-5 -10 -11z"/>
<path d="M2630 2919 c0 -5 5 -7 10 -4 6 3 10 8 10 11 0 2 -4 4 -10 4 -5 0 -10
-5 -10 -11z"/>
<path d="M3750 2890 c0 -11 -7 -37 -15 -57 -22 -53 -11 -52 14 2 23 49 27 75
11 75 -5 0 -10 -9 -10 -20z"/>
<path d="M2570 2880 c-9 -6 -10 -10 -3 -10 6 0 15 5 18 10 8 12 4 12 -15 0z"/>
<path d="M5442 2860 c0 -14 4 -38 8 -55 l8 -30 0 35 c0 19 -3 44 -8 55 -8 18
-9 18 -8 -5z"/>
<path d="M5481 2824 c0 -11 3 -14 6 -6 3 7 2 16 -1 19 -3 4 -6 -2 -5 -13z"/>
<path d="M3910 2795 c-12 -13 -27 -23 -33 -22 -6 1 -13 -7 -15 -18 -6 -29 -23
-47 -40 -40 -10 3 -12 0 -8 -10 3 -8 0 -15 -7 -15 -7 0 -20 -12 -29 -27 -9
-16 -26 -38 -38 -51 -12 -13 -20 -26 -17 -29 3 -3 14 5 24 17 10 12 38 43 62
68 35 38 42 42 36 22 -11 -35 -48 -75 -142 -155 -45 -39 -82 -74 -83 -79 0 -5
10 -1 22 10 64 55 87 75 128 112 25 22 46 39 48 38 1 -2 -3 -16 -9 -32 -9 -25
-115 -128 -159 -154 -8 -5 -12 -11 -9 -14 5 -6 46 25 100 77 46 43 58 47 35
12 -9 -14 -12 -25 -6 -25 6 0 19 19 29 41 11 23 30 51 43 63 42 37 78 87 72
98 -4 7 -11 3 -18 -9 -14 -25 -63 -83 -70 -83 -14 0 22 59 61 99 23 25 40 47
38 50 -3 2 -17 -10 -32 -27 -14 -18 -29 -32 -34 -32 -17 0 6 48 43 87 34 39
44 53 35 53 -2 0 -14 -11 -27 -25z"/>
<path d="M2430 2790 c-8 -5 -12 -12 -9 -15 4 -3 12 1 19 10 14 17 11 19 -10 5z"/>
<path d="M3690 2731 c-12 -24 -13 -34 -1 -27 9 6 22 46 15 46 -2 0 -8 -9 -14
-19z"/>
<path d="M5460 2712 c0 -23 4 -42 9 -42 6 0 7 17 4 38 -8 51 -13 53 -13 4z"/>
<path d="M3766 2694 c-5 -14 -4 -15 9 -4 17 14 19 20 6 20 -5 0 -12 -7 -15
-16z"/>
<path d="M3662 2653 c-5 -15 -12 -35 -15 -43 -3 -8 -12 -32 -21 -52 -9 -22
-12 -38 -6 -38 5 0 10 7 10 15 0 8 4 23 10 33 13 22 40 105 36 109 -2 2 -8 -9
-14 -24z"/>
<path d="M3740 2659 c0 -5 5 -7 10 -4 6 3 10 8 10 11 0 2 -4 4 -10 4 -5 0 -10
-5 -10 -11z"/>
<path d="M5472 2615 c0 -27 4 -79 8 -115 l7 -65 0 85 c0 47 -3 99 -7 115 -6
26 -8 23 -8 -20z"/>
<path d="M3683 2561 c-12 -10 -19 -21 -16 -25 3 -3 14 4 24 16 30 33 26 37 -8
9z"/>
<path d="M3640 2515 c-7 -8 -16 -13 -20 -10 -10 6 -45 -46 -42 -61 1 -6 -9
-21 -23 -34 -24 -23 -37 -16 -13 8 8 8 8 12 1 12 -6 0 -16 -14 -22 -31 -14
-41 -14 -44 3 -30 11 9 15 8 20 -6 4 -10 4 -14 0 -11 -3 4 -15 -3 -25 -15 -10
-12 -18 -18 -19 -12 0 5 -7 -1 -16 -13 -9 -13 -13 -31 -9 -43 5 -14 3 -19 -3
-15 -6 3 -18 -11 -28 -33 -11 -25 -31 -47 -56 -61 -21 -12 -35 -26 -32 -32 4
-6 10 -6 17 1 7 7 15 5 26 -8 16 -18 17 -18 40 0 25 21 21 25 -10 9 -27 -15
-25 4 4 30 29 28 190 125 200 122 5 -1 6 2 2 8 -3 5 1 10 10 10 11 0 15 6 10
19 -4 12 0 21 11 25 9 4 14 9 11 12 -10 10 -68 -37 -61 -48 4 -7 2 -8 -4 -4
-6 4 -19 0 -29 -8 -10 -8 -36 -29 -58 -45 -22 -17 -46 -35 -52 -41 -7 -6 -13
-8 -13 -5 0 13 64 117 79 128 9 6 18 23 18 36 1 13 12 34 24 47 13 14 23 33
24 43 1 10 15 31 31 45 16 14 26 26 23 26 -4 0 -12 -7 -19 -15z m-147 -230
c-3 -9 -8 -14 -10 -11 -3 3 -2 9 2 15 9 16 15 13 8 -4z"/>
<path d="M3548 2475 c-3 -14 -1 -25 3 -25 5 0 9 11 9 25 0 14 -2 25 -4 25 -2
0 -6 -11 -8 -25z"/>
<path d="M3590 2385 c-11 -13 -10 -14 4 -9 9 3 16 10 16 15 0 13 -6 11 -20 -6z"/>
<path d="M3459 2329 l-24 -20 28 17 c15 9 27 18 27 20 0 8 -8 4 -31 -17z"/>
<path d="M3330 2115 c0 -9 5 -15 11 -13 6 2 11 8 11 13 0 5 -5 11 -11 13 -6 2
-11 -4 -11 -13z"/>
<path d="M3307 2113 c-3 -5 -2 -15 2 -22 5 -7 11 -9 14 -4 3 5 2 15 -2 22 -5
7 -11 9 -14 4z"/>
<path d="M3370 2099 c-7 -13 -19 -27 -26 -32 -7 -4 -11 -14 -8 -22 4 -8 1 -15
-5 -15 -6 0 -11 5 -11 10 0 6 -21 -3 -46 -20 -25 -18 -43 -34 -40 -37 2 -3 21
7 41 22 19 15 38 26 41 23 6 -7 -37 -82 -69 -118 -15 -16 -24 -30 -20 -30 9 0
63 62 63 73 0 5 5 5 12 1 7 -4 8 -3 4 5 -7 11 53 103 81 126 8 6 9 15 4 24 -7
11 -12 9 -21 -10z"/>
<path d="M3279 2098 c-1 -5 -2 -13 -3 -20 0 -6 -7 -13 -15 -16 -9 -3 -11 0 -6
8 6 9 4 11 -4 5 -9 -5 -9 -11 -3 -17 16 -16 53 14 41 32 -5 8 -9 12 -10 8z"/>
<path d="M3208 2051 c-8 -11 -18 -18 -23 -13 -5 4 -5 2 -2 -4 4 -7 -6 -26 -22
-43 -16 -17 -31 -28 -33 -24 -3 5 -4 3 -2 -3 1 -6 -14 -29 -34 -52 -33 -37
-102 -82 -270 -175 -29 -16 -51 -31 -49 -33 5 -5 107 48 131 69 11 9 24 17 28
17 5 0 27 12 49 26 23 14 42 24 44 22 2 -2 -30 -39 -71 -82 -41 -44 -74 -81
-74 -84 0 -10 97 85 153 151 32 37 65 67 73 67 8 0 14 6 12 14 -4 21 82 118
99 112 18 -7 27 18 15 40 -8 15 -11 15 -24 -5z"/>
<path d="M3145 2020 c-3 -5 -2 -10 4 -10 5 0 13 5 16 10 3 6 2 10 -4 10 -5 0
-13 -4 -16 -10z"/>
<path d="M3166 1947 c-26 -17 -43 -33 -36 -35 7 -3 15 0 19 5 3 5 21 18 39 28
17 11 32 23 32 27 0 10 3 12 -54 -25z"/>
<path d="M1016 1753 c-6 -14 -5 -15 5 -6 7 7 10 15 7 18 -3 3 -9 -2 -12 -12z"/>
<path d="M2740 1689 c0 -5 5 -7 10 -4 6 3 10 8 10 11 0 2 -4 4 -10 4 -5 0 -10
-5 -10 -11z"/>
<path d="M947 1633 c-4 -3 -7 -11 -7 -17 0 -6 5 -5 12 2 6 6 9 14 7 17 -3 3
-9 2 -12 -2z"/>
<path d="M870 1500 c0 -5 5 -10 10 -10 6 0 10 5 10 10 0 6 -4 10 -10 10 -5 0
-10 -4 -10 -10z"/>
<path d="M2574 1454 c-18 -14 -18 -14 6 -3 31 14 36 19 24 19 -6 0 -19 -7 -30
-16z"/>
<path d="M780 1435 c-7 -9 -11 -17 -9 -20 3 -2 10 5 17 15 14 24 10 26 -8 5z"/>
<path d="M824 1417 c-28 -42 -36 -57 -31 -57 7 0 59 81 55 85 -2 2 -13 -11
-24 -28z"/>
<path d="M2510 1419 c0 -5 5 -7 10 -4 6 3 10 8 10 11 0 2 -4 4 -10 4 -5 0 -10
-5 -10 -11z"/>
<path d="M557 1393 c-8 -10 -18 -36 -21 -58 l-6 -40 15 39 c8 21 20 45 26 53
18 20 5 26 -14 6z"/>
<path d="M705 1324 c-9 -14 -15 -27 -13 -30 2 -2 12 10 22 26 21 37 15 40 -9
4z"/>
<path d="M754 1315 c-9 -14 -15 -28 -12 -30 2 -2 12 9 22 25 21 36 13 40 -10
5z"/>
<path d="M790 1285 c-9 -10 -9 -15 -1 -15 6 0 11 4 11 9 0 5 8 12 18 14 14 4
14 5 1 6 -9 0 -22 -6 -29 -14z"/>
<path d="M710 1248 c-12 -22 -12 -22 6 -6 10 10 15 20 12 24 -4 3 -12 -5 -18
-18z"/>
<path d="M745 1250 c-3 -6 1 -7 9 -4 18 7 21 14 7 14 -6 0 -13 -4 -16 -10z"/>
<path d="M2633 1224 c-9 -25 14 -103 45 -148 15 -21 32 -47 38 -57 17 -29 91
-95 156 -140 65 -44 277 -149 302 -149 8 0 39 -9 68 -19 29 -11 71 -23 93 -26
22 -4 63 -15 90 -25 103 -37 335 -77 312 -53 -5 4 -12 8 -15 9 -51 5 -136 18
-172 25 -70 15 -163 51 -150 59 21 13 2 44 -42 70 -58 34 -98 51 -98 42 0 -5
16 -14 35 -21 19 -7 35 -19 35 -28 0 -9 6 -13 14 -10 13 5 46 -21 46 -35 0
-12 -41 -16 -80 -7 -23 5 -79 27 -125 49 -47 22 -88 40 -93 40 -5 0 -19 11
-32 26 -21 21 -22 27 -10 34 12 8 10 10 -7 10 -30 0 -29 -11 3 -50 l27 -31
-59 28 c-192 91 -376 287 -361 386 4 32 -10 47 -20 21z"/>
<path d="M2610 1091 c0 -5 15 -21 33 -35 17 -15 38 -31 45 -37 7 -6 16 -9 18
-6 3 3 -7 13 -21 24 -15 10 -37 28 -51 41 -13 13 -24 19 -24 13z"/>
<path d="M1946 905 c-11 -8 -15 -15 -9 -15 6 0 16 7 23 15 16 19 11 19 -14 0z"/>
<path d="M4815 870 c-3 -5 -1 -10 4 -10 6 0 11 5 11 10 0 6 -2 10 -4 10 -3 0
-8 -4 -11 -10z"/>
<path d="M4908 873 c29 -2 74 -2 100 0 26 2 2 3 -53 3 -55 0 -76 -1 -47 -3z"/>
<path d="M4652 856 c-35 -6 -61 -14 -58 -17 6 -5 97 6 171 21 l40 8 -45 -1
c-25 0 -73 -5 -108 -11z"/>
<path d="M5155 856 c22 -6 54 -19 72 -29 36 -19 47 -21 39 -8 -11 18 -92 51
-122 50 -27 -1 -26 -2 11 -13z"/>
<path d="M2180 854 c0 -6 7 -19 15 -30 8 -10 14 -14 14 -9 0 6 -6 19 -14 29
-8 11 -15 15 -15 10z"/>
<path d="M3100 830 c0 -5 5 -10 11 -10 5 0 7 5 4 10 -3 6 -8 10 -11 10 -2 0
-4 -4 -4 -10z"/>
<path d="M4473 826 c-57 -10 -95 -26 -62 -26 20 0 163 30 168 36 7 6 -37 2
-106 -10z"/>
<path d="M390 800 c-15 -28 8 -147 41 -215 7 -14 6 -37 -1 -69 -6 -27 -8 -51
-5 -54 2 -3 8 9 11 26 4 18 10 29 15 27 4 -3 8 12 8 32 0 21 5 54 10 73 13 42
14 63 2 56 -4 -3 -12 -25 -16 -48 l-7 -43 -17 40 c-10 22 -23 67 -30 99 -12
53 -11 61 3 71 18 14 21 25 6 25 -5 0 -14 -9 -20 -20z"/>
<path d="M2670 811 c0 -5 5 -13 10 -16 6 -3 10 -2 10 4 0 5 -4 13 -10 16 -5 3
-10 2 -10 -4z"/>
<path d="M3145 810 c3 -5 11 -10 16 -10 6 0 7 5 4 10 -3 6 -11 10 -16 10 -6 0
-7 -4 -4 -10z"/>
<path d="M3198 793 c7 -3 16 -2 19 1 4 3 -2 6 -13 5 -11 0 -14 -3 -6 -6z"/>
<path d="M4295 785 l-40 -14 45 6 c25 3 54 9 65 14 36 14 -25 9 -70 -6z"/>
<path d="M4188 753 c7 -3 16 -2 19 1 4 3 -2 6 -13 5 -11 0 -14 -3 -6 -6z"/>
<path d="M3410 740 c0 -5 5 -10 10 -10 6 0 10 5 10 10 0 6 -4 10 -10 10 -5 0
-10 -4 -10 -10z"/>
<path d="M4125 740 c-7 -12 2 -12 30 0 19 8 19 9 -2 9 -12 1 -25 -3 -28 -9z"/>
<path d="M1916 713 c-6 -14 -5 -15 5 -6 7 7 10 15 7 18 -3 3 -9 -2 -12 -12z"/>
<path d="M3581 726 c7 -8 108 -10 115 -3 4 4 -21 7 -56 7 -35 0 -61 -2 -59 -4z"/>
<path d="M3718 723 c6 -2 18 -2 25 0 6 3 1 5 -13 5 -14 0 -19 -2 -12 -5z"/>
<path d="M4045 720 c-25 -11 1 -11 35 0 20 6 21 8 5 8 -11 0 -29 -3 -40 -8z"/>
<path d="M2730 716 c0 -2 7 -9 15 -16 13 -11 14 -10 9 4 -5 14 -24 23 -24 12z"/>
<path d="M3930 690 c-12 -8 -12 -10 5 -10 11 0 27 5 35 10 12 8 12 10 -5 10
-11 0 -27 -5 -35 -10z"/>
<path d="M1865 644 c-23 -49 -15 -52 12 -3 12 21 18 39 13 39 -4 0 -15 -16
-25 -36z"/>
<path d="M3860 669 c0 -5 5 -7 10 -4 6 3 10 8 10 11 0 2 -4 4 -10 4 -5 0 -10
-5 -10 -11z"/>
<path d="M3768 653 c7 -3 16 -2 19 1 4 3 -2 6 -13 5 -11 0 -14 -3 -6 -6z"/>
<path d="M3755 620 c-3 -5 -1 -10 4 -10 6 0 11 5 11 10 0 6 -2 10 -4 10 -3 0
-8 -4 -11 -10z"/>
<path d="M1960 590 c-14 -11 -20 -20 -15 -20 6 0 21 9 35 20 14 11 21 20 15
20 -5 0 -21 -9 -35 -20z"/>
<path d="M572 560 c0 -14 2 -19 5 -12 2 6 2 18 0 25 -3 6 -5 1 -5 -13z"/>
<path d="M2848 553 c7 -3 16 -2 19 1 4 3 -2 6 -13 5 -11 0 -14 -3 -6 -6z"/>
<path d="M2880 536 c0 -2 8 -10 18 -17 15 -13 16 -12 3 4 -13 16 -21 21 -21
13z"/>
<path d="M1833 512 c0 -12 5 -22 9 -22 11 0 10 12 -2 30 -7 12 -9 10 -7 -8z"/>
<path d="M2860 523 c0 -6 8 -17 18 -24 16 -13 16 -13 2 6 -8 11 -16 22 -17 24
-2 2 -3 0 -3 -6z"/>
<path d="M2920 500 c0 -5 5 -10 11 -10 5 0 7 5 4 10 -3 6 -8 10 -11 10 -2 0
-4 -4 -4 -10z"/>
<path d="M467 465 c3 -22 9 -47 14 -55 15 -27 9 32 -6 65 l-14 30 6 -40z"/>
<path d="M581 480 c0 -8 4 -22 9 -30 12 -18 12 -2 0 25 -6 13 -9 15 -9 5z"/>
<path d="M2983 453 c9 -9 20 -13 24 -9 4 4 1 11 -7 16 -25 16 -35 11 -17 -7z"/>
<path d="M411 434 c0 -11 3 -14 6 -6 3 7 2 16 -1 19 -3 4 -6 -2 -5 -13z"/>
<path d="M3020 430 c0 -5 5 -10 11 -10 5 0 7 5 4 10 -3 6 -8 10 -11 10 -2 0
-4 -4 -4 -10z"/>
<path d="M750 423 c0 -33 103 -406 116 -422 2 -2 6 -2 9 1 3 3 -1 21 -10 41
-14 35 -48 156 -86 306 -17 68 -29 99 -29 74z"/>
<path d="M3050 416 c0 -5 78 -56 86 -56 4 0 -12 14 -34 30 -40 28 -52 35 -52
26z"/>
<path d="M497 393 c-11 -10 -8 -63 3 -63 6 0 10 16 10 35 0 36 -2 40 -13 28z"/>
<path d="M2352 325 c0 -16 2 -22 5 -12 2 9 2 23 0 30 -3 6 -5 -1 -5 -18z"/>
<path d="M3180 336 c0 -2 7 -7 16 -10 8 -3 12 -2 9 4 -6 10 -25 14 -25 6z"/>
<path d="M288 295 c-24 -33 -22 -42 4 -19 12 10 18 13 14 7 -4 -7 -2 -13 3
-13 6 0 11 11 11 25 0 31 -10 31 -32 0z"/>
<path d="M515 295 c4 -16 10 -55 15 -84 14 -85 42 -195 52 -206 6 -6 7 1 3 20
-4 17 -11 50 -16 75 -19 93 -41 183 -50 204 -8 17 -8 16 -4 -9z"/>
<path d="M3265 290 c3 -5 8 -10 11 -10 2 0 4 5 4 10 0 6 -5 10 -11 10 -5 0 -7
-4 -4 -10z"/>
<path d="M3305 273 c16 -15 65 -33 65 -24 0 5 -8 11 -17 14 -10 2 -27 8 -38
12 -13 5 -16 5 -10 -2z"/>
<path d="M3010 260 c0 -5 5 -10 11 -10 5 0 7 5 4 10 -3 6 -8 10 -11 10 -2 0
-4 -4 -4 -10z"/>
<path d="M302 230 c0 -19 2 -27 5 -17 2 9 2 25 0 35 -3 9 -5 1 -5 -18z"/>
<path d="M3430 221 c0 -8 41 -23 47 -17 2 1 -8 8 -22 14 -14 6 -25 8 -25 3z"/>
<path d="M3022 200 c-10 -17 -10 -20 3 -20 8 0 15 9 15 20 0 11 -1 20 -3 20
-1 0 -8 -9 -15 -20z"/>
<path d="M3505 190 c3 -5 11 -10 16 -10 6 0 7 5 4 10 -3 6 -11 10 -16 10 -6 0
-7 -4 -4 -10z"/>
<path d="M3550 170 c20 -13 33 -13 25 0 -3 6 -14 10 -23 10 -15 0 -15 -2 -2
-10z"/>
<path d="M3620 150 c20 -13 33 -13 25 0 -3 6 -14 10 -23 10 -15 0 -15 -2 -2
-10z"/>
<path d="M3688 138 c5 -5 16 -8 23 -6 8 3 3 7 -10 11 -17 4 -21 3 -13 -5z"/>
<path d="M291 124 c0 -11 3 -14 6 -6 3 7 2 16 -1 19 -3 4 -6 -2 -5 -13z"/>
<path d="M291 54 c0 -11 3 -14 6 -6 3 7 2 16 -1 19 -3 4 -6 -2 -5 -13z"/>
</g>
</svg>
